<?xml version="1.0" encoding="us-ascii" standalone="no"?><svg xmlns="http://www.w3.org/2000/svg" xmlns:xlink="http://www.w3.org/1999/xlink" contentStyleType="text/css" height="533px" preserveAspectRatio="none" style="width:534px;height:533px;background:#FFFFFF;" version="1.1" viewBox="0 0 534 533" width="534px" zoomAndPan="magnify"><defs/><g><!--class Iterator--><g id="elem_Iterator"><rect codeLine="2" fill="#F1F1F1" height="295.3242" id="Iterator" rx="2.5" ry="2.5" style="stroke:#181818;stroke-width:0.5;" width="520" x="7" y="230.93"/><ellipse cx="237.25" cy="246.93" fill="#ADD1B2" rx="11" ry="11" style="stroke:#181818;stroke-width:1.0;"/><path d="M239.7231,253.0731 Q239.1421,253.3719 238.5029,253.5213 Q237.8638,253.6707 237.1582,253.6707 Q234.6514,253.6707 233.3315,252.0189 Q232.0117,250.367 232.0117,247.2459 Q232.0117,244.1165 233.3315,242.4647 Q234.6514,240.8128 237.1582,240.8128 Q237.8638,240.8128 238.5112,240.9622 Q239.1587,241.1116 239.7231,241.4105 L239.7231,244.1331 Q239.0923,243.5521 238.4988,243.2823 Q237.9053,243.0125 237.2744,243.0125 Q235.9297,243.0125 235.2449,244.0792 Q234.5601,245.1458 234.5601,247.2459 Q234.5601,249.3377 235.2449,250.4044 Q235.9297,251.471 237.2744,251.471 Q237.9053,251.471 238.4988,251.2012 Q239.0923,250.9315 239.7231,250.3504 Z " fill="#000000"/><text fill="#000000" font-family="sans-serif" font-size="14" lengthAdjust="spacing" textLength="51" x="257.75" y="252.221">Iterator</text><line style="stroke:#181818;stroke-width:0.5;" x1="8" x2="526" y1="262.93" y2="262.93"/><rect fill="none" height="6" style="stroke:#C82930;stroke-width:1.0;" width="6" x="15" y="273.6741"/><text fill="#000000" font-family="sans-serif" font-size="14" lengthAdjust="spacing" textLength="199" x="27" y="280.4652">CleanupNode cleanup_head_</text><line style="stroke:#181818;stroke-width:0.5;" x1="8" x2="526" y1="287.4183" y2="287.4183"/><ellipse cx="18" cy="301.1624" fill="#84BE84" rx="3" ry="3" style="stroke:#038048;stroke-width:1.0;"/><text fill="#000000" font-family="sans-serif" font-size="14" lengthAdjust="spacing" textLength="61" x="27" y="304.9534">Iterator()</text><ellipse cx="18" cy="317.6507" fill="#84BE84" rx="3" ry="3" style="stroke:#038048;stroke-width:1.0;"/><text fill="#000000" font-family="sans-serif" font-size="14" font-style="italic" lengthAdjust="spacing" textLength="120" x="27" y="321.4417">bool Valid() const</text><ellipse cx="18" cy="334.139" fill="#84BE84" rx="3" ry="3" style="stroke:#038048;stroke-width:1.0;"/><text fill="#000000" font-family="sans-serif" font-size="14" font-style="italic" lengthAdjust="spacing" textLength="123" x="27" y="337.93">void SeekToFirst()</text><ellipse cx="18" cy="350.6273" fill="#84BE84" rx="3" ry="3" style="stroke:#038048;stroke-width:1.0;"/><text fill="#000000" font-family="sans-serif" font-size="14" font-style="italic" lengthAdjust="spacing" textLength="120" x="27" y="354.4183">void SeekToLast()</text><ellipse cx="18" cy="367.1155" fill="#84BE84" rx="3" ry="3" style="stroke:#038048;stroke-width:1.0;"/><text fill="#000000" font-family="sans-serif" font-size="14" font-style="italic" lengthAdjust="spacing" textLength="202" x="27" y="370.9066">void Seek(const Slice&amp; target)</text><ellipse cx="18" cy="383.6038" fill="#84BE84" rx="3" ry="3" style="stroke:#038048;stroke-width:1.0;"/><text fill="#000000" font-family="sans-serif" font-size="14" font-style="italic" lengthAdjust="spacing" textLength="75" x="27" y="387.3948">void Next()</text><ellipse cx="18" cy="400.0921" fill="#84BE84" rx="3" ry="3" style="stroke:#038048;stroke-width:1.0;"/><text fill="#000000" font-family="sans-serif" font-size="14" font-style="italic" lengthAdjust="spacing" textLength="72" x="27" y="403.8831">void Prev()</text><ellipse cx="18" cy="416.5804" fill="#84BE84" rx="3" ry="3" style="stroke:#038048;stroke-width:1.0;"/><text fill="#000000" font-family="sans-serif" font-size="14" font-style="italic" lengthAdjust="spacing" textLength="109" x="27" y="420.3714">Slice key() const</text><ellipse cx="18" cy="433.0687" fill="#84BE84" rx="3" ry="3" style="stroke:#038048;stroke-width:1.0;"/><text fill="#000000" font-family="sans-serif" font-size="14" font-style="italic" lengthAdjust="spacing" textLength="122" x="27" y="436.8597">Slice value() const</text><ellipse cx="18" cy="449.557" fill="#84BE84" rx="3" ry="3" style="stroke:#038048;stroke-width:1.0;"/><text fill="#000000" font-family="sans-serif" font-size="14" font-style="italic" lengthAdjust="spacing" textLength="138" x="27" y="453.348">Status status() const</text><ellipse cx="18" cy="466.0452" fill="#84BE84" rx="3" ry="3" style="stroke:#038048;stroke-width:1.0;"/><text fill="#000000" font-family="sans-serif" font-size="14" lengthAdjust="spacing" textLength="494" x="27" y="469.8363">void RegisterCleanup(CleanupFunction function, void* arg1, void* arg2)</text><ellipse cx="18" cy="482.5335" fill="#84BE84" rx="3" ry="3" style="stroke:#038048;stroke-width:1.0;"/><text fill="#000000" font-family="sans-serif" font-size="14" lengthAdjust="spacing" textLength="70" x="27" y="486.3245">~Iterator()</text><rect fill="#F24D5C" height="6" style="stroke:#C82930;stroke-width:1.0;" width="6" x="15" y="496.0218"/><text fill="#000000" font-family="sans-serif" font-size="14" lengthAdjust="spacing" textLength="224" x="27" y="502.8128">Iterator(const Iterator&amp;) = delete</text><rect fill="#F24D5C" height="6" style="stroke:#C82930;stroke-width:1.0;" width="6" x="15" y="512.5101"/><text fill="#000000" font-family="sans-serif" font-size="14" lengthAdjust="spacing" textLength="309" x="27" y="519.3011">Iterator&amp; operator=(const Iterator&amp;) = delete</text></g><g id="elem_GMN3"><path d="M101.5,67.81 L101.5,93.1205 A0,0 0 0 0 101.5,93.1205 L166.08,93.1205 L216.83,230.49 L174.08,93.1205 L230.5,93.1205 A0,0 0 0 0 230.5,93.1205 L230.5,77.81 L220.5,67.81 L101.5,67.81 A0,0 0 0 0 101.5,67.81 " fill="#FEFFDD" style="stroke:#181818;stroke-width:0.5;"/><path d="M220.5,67.81 L220.5,77.81 L230.5,77.81 L220.5,67.81 " fill="#FEFFDD" style="stroke:#181818;stroke-width:0.5;"/><text fill="#000000" font-family="sans-serif" font-size="13" lengthAdjust="spacing" textLength="108" x="107.5" y="85.3784">LEVELDB_EXPORT</text></g><!--class CleanupNode--><g id="elem_CleanupNode"><rect codeLine="25" fill="#F1F1F1" height="146.9297" id="CleanupNode" rx="2.5" ry="2.5" style="stroke:#181818;stroke-width:0.5;" width="204" x="266" y="7"/><ellipse cx="317.25" cy="23" fill="#ADD1B2" rx="11" ry="11" style="stroke:#181818;stroke-width:1.0;"/><path d="M319.7231,29.1431 Q319.1421,29.4419 318.5029,29.5913 Q317.8638,29.7407 317.1582,29.7407 Q314.6514,29.7407 313.3315,28.0889 Q312.0117,26.437 312.0117,23.3159 Q312.0117,20.1865 313.3315,18.5347 Q314.6514,16.8828 317.1582,16.8828 Q317.8638,16.8828 318.5112,17.0322 Q319.1587,17.1816 319.7231,17.4805 L319.7231,20.2031 Q319.0923,19.6221 318.4988,19.3523 Q317.9053,19.0825 317.2744,19.0825 Q315.9297,19.0825 315.2449,20.1492 Q314.5601,21.2158 314.5601,23.3159 Q314.5601,25.4077 315.2449,26.4744 Q315.9297,27.541 317.2744,27.541 Q317.9053,27.541 318.4988,27.2712 Q319.0923,27.0015 319.7231,26.4204 Z " fill="#000000"/><text fill="#000000" font-family="sans-serif" font-size="14" lengthAdjust="spacing" textLength="93" x="337.75" y="28.291">CleanupNode</text><line style="stroke:#181818;stroke-width:0.5;" x1="267" x2="469" y1="39" y2="39"/><rect fill="none" height="6" style="stroke:#C82930;stroke-width:1.0;" width="6" x="274" y="49.7441"/><text fill="#000000" font-family="sans-serif" font-size="14" lengthAdjust="spacing" textLength="178" x="286" y="56.5352">CleanupFunction function</text><rect fill="none" height="6" style="stroke:#C82930;stroke-width:1.0;" width="6" x="274" y="66.2324"/><text fill="#000000" font-family="sans-serif" font-size="14" lengthAdjust="spacing" textLength="72" x="286" y="73.0234">void* arg1</text><rect fill="none" height="6" style="stroke:#C82930;stroke-width:1.0;" width="6" x="274" y="82.7207"/><text fill="#000000" font-family="sans-serif" font-size="14" lengthAdjust="spacing" textLength="72" x="286" y="89.5117">void* arg2</text><rect fill="none" height="6" style="stroke:#C82930;stroke-width:1.0;" width="6" x="274" y="99.209"/><text fill="#000000" font-family="sans-serif" font-size="14" lengthAdjust="spacing" textLength="135" x="286" y="106">CleanupNode* next</text><line style="stroke:#181818;stroke-width:0.5;" x1="267" x2="469" y1="112.9531" y2="112.9531"/><ellipse cx="277" cy="126.6973" fill="#84BE84" rx="3" ry="3" style="stroke:#038048;stroke-width:1.0;"/><text fill="#000000" font-family="sans-serif" font-size="14" lengthAdjust="spacing" textLength="139" x="286" y="130.4883">bool IsEmpty() const</text><ellipse cx="277" cy="143.1855" fill="#84BE84" rx="3" ry="3" style="stroke:#038048;stroke-width:1.0;"/><text fill="#000000" font-family="sans-serif" font-size="14" lengthAdjust="spacing" textLength="70" x="286" y="146.9766">void Run()</text></g><!--reverse link CleanupNode to Iterator--><g id="link_CleanupNode_Iterator"><path codeLine="34" d="M337.3535,171.3177 C329.4435,194.5277 326.19,204.05 317.14,230.57 " fill="none" id="CleanupNode-backto-Iterator" style="stroke:#181818;stroke-width:1.0;"/><polygon fill="none" points="343.16,154.28,331.6743,169.3822,343.0328,173.2532,343.16,154.28" style="stroke:#181818;stroke-width:1.0;"/><text fill="#000000" font-family="sans-serif" font-size="13" lengthAdjust="spacing" textLength="54" x="333.45" y="197.4984">contains</text></g><!--SRC=[VPB1Ri8m38RlUGgVKCl6OHodSHah4bB5422q6mgfOH5PKZLkDSJOiw-ahBIKSeejVt5-_x5Gt5eO4oQSJ0871l1GffxlqWDVMqgue2EiZL6mv4f6dW_2Q4lNH6Pa17F4tSACP6AfsQD2XFmkuBaNOAwam0uGJxP8j-a9VhSrcYQODKkk9-nmtpP70MHSfTYA4AVKWdL73N8Fpt0hRUxaK27NQUoTpr6g1KcZONCE7XtUXNoyfqhSBpJ_rZwZ1-Sk4nCXY29UVIAFLioLIxgmxZ_j-32021KIrh0EcBY81dTk71dJXX38n60s9P9t2eDb4BwzheAFwVjimL17S28P4swlgcABrN8BDBR1Lqpx6vQbkZvcmonNlFXLJ_lN3dL1vujnqbzLylBJkpW0poSHnAMsx0y0]--></g></svg>