<svg version="1.1" xmlns="http://www.w3.org/2000/svg" viewBox="0 0 1237.991970189409 820.6751239928841" width="1237.991970189409" height="820.6751239928841">
  <!-- svg-source:excalidraw -->
  
  <defs>
    <style class="style-fonts">
      @font-face {
        font-family: "Virgil";
        src: url("https://file%2B.vscode-resource.vscode-cdn.net/Users/tangruilin/.vscode/extensions/pomdtr.excalidraw-editor-3.7.4/public//dist/excalidraw-assets/Virgil.woff2");
      }
      @font-face {
        font-family: "Cascadia";
        src: url("https://file%2B.vscode-resource.vscode-cdn.net/Users/tangruilin/.vscode/extensions/pomdtr.excalidraw-editor-3.7.4/public//dist/excalidraw-assets/Cascadia.woff2");
      }
      @font-face {
        font-family: "Assistant";
        src: url("https://file%2B.vscode-resource.vscode-cdn.net/Users/tangruilin/.vscode/extensions/pomdtr.excalidraw-editor-3.7.4/public//dist/excalidraw-assets/Assistant-Regular.woff2");
      }
    </style>
    
  </defs>
  <rect x="0" y="0" width="1237.991970189409" height="820.6751239928841" fill="#ffffff"></rect><g stroke-linecap="round" transform="translate(551.0506135121591 103.15853396977073) rotate(0 60.088940930680394 15.956503442284713)"><path d="M0 0 L120.18 0 L120.18 31.91 L0 31.91" stroke="none" stroke-width="0" fill="#e9ecef"></path><path d="M0 0 C25.63 0, 51.26 0, 120.18 0 M0 0 C25.34 0, 50.68 0, 120.18 0 M120.18 0 C120.18 10.09, 120.18 20.18, 120.18 31.91 M120.18 0 C120.18 9.13, 120.18 18.26, 120.18 31.91 M120.18 31.91 C87.84 31.91, 55.49 31.91, 0 31.91 M120.18 31.91 C80 31.91, 39.82 31.91, 0 31.91 M0 31.91 C0 19.27, 0 6.64, 0 0 M0 31.91 C0 20.86, 0 9.81, 0 0" stroke="#1e1e1e" stroke-width="2" fill="none"></path></g><g transform="translate(604.5635733027028 109.11503741205544) rotate(0 6.575981140136719 10)"><text x="6.575981140136719" y="0" font-family="Virgil, Segoe UI Emoji" font-size="16px" fill="#1e1e1e" text-anchor="middle" style="white-space: pre;" direction="ltr" dominant-baseline="text-before-edge">...</text></g><g stroke-linecap="round" transform="translate(551.0506127194649 135.0715416391018) rotate(0 60.088940930680394 15.956503464372076)"><path d="M0 0 L120.18 0 L120.18 31.91 L0 31.91" stroke="none" stroke-width="0" fill="#ffffff"></path><path d="M0 0 C26.93 0, 53.87 0, 120.18 0 M0 0 C47.45 0, 94.91 0, 120.18 0 M120.18 0 C120.18 8.01, 120.18 16.02, 120.18 31.91 M120.18 0 C120.18 9.48, 120.18 18.97, 120.18 31.91 M120.18 31.91 C83.94 31.91, 47.7 31.91, 0 31.91 M120.18 31.91 C87.3 31.91, 54.43 31.91, 0 31.91 M0 31.91 C0 23.85, 0 15.79, 0 0 M0 31.91 C0 20, 0 8.09, 0 0" stroke="#1e1e1e" stroke-width="2" fill="none"></path></g><g transform="translate(559.5458036501453 141.8280451034739) rotate(0 51.59375 9.199999999999989)"><text x="51.59375" y="0" font-family="Helvetica, Segoe UI Emoji" font-size="16px" fill="#1e1e1e" text-anchor="middle" style="white-space: pre;" direction="ltr" dominant-baseline="text-before-edge">Version* next_</text></g><g stroke-linecap="round" transform="translate(551.0506142040766 166.98454964639248) rotate(0 60.088940930680394 15.956503442284713)"><path d="M0 0 L120.18 0 L120.18 31.91 L0 31.91" stroke="none" stroke-width="0" fill="#ffffff"></path><path d="M0 0 C37.23 0, 74.46 0, 120.18 0 M0 0 C46.72 0, 93.43 0, 120.18 0 M120.18 0 C120.18 8.74, 120.18 17.48, 120.18 31.91 M120.18 0 C120.18 9.15, 120.18 18.31, 120.18 31.91 M120.18 31.91 C89.12 31.91, 58.07 31.91, 0 31.91 M120.18 31.91 C86.08 31.91, 51.98 31.91, 0 31.91 M0 31.91 C0 23.83, 0 15.74, 0 0 M0 31.91 C0 22.25, 0 12.58, 0 0" stroke="#1e1e1e" stroke-width="2" fill="none"></path></g><g transform="translate(559.104398884757 173.7410530886772) rotate(0 52.03515625 9.199999999999989)"><text x="52.03515625" y="0" font-family="Helvetica, Segoe UI Emoji" font-size="16px" fill="#1e1e1e" text-anchor="middle" style="white-space: pre;" direction="ltr" dominant-baseline="text-before-edge">Version* prev_</text></g><g stroke-linecap="round" transform="translate(551.050613793193 198.8975570034399) rotate(0 60.088940930680394 15.956503442284713)"><path d="M0 0 L120.18 0 L120.18 31.91 L0 31.91" stroke="none" stroke-width="0" fill="#f8f9fa"></path><path d="M0 0 C47.52 0, 95.05 0, 120.18 0 M0 0 C43.41 0, 86.83 0, 120.18 0 M120.18 0 C120.18 12.59, 120.18 25.18, 120.18 31.91 M120.18 0 C120.18 6.96, 120.18 13.92, 120.18 31.91 M120.18 31.91 C74.39 31.91, 28.59 31.91, 0 31.91 M120.18 31.91 C91.68 31.91, 63.19 31.91, 0 31.91 M0 31.91 C0 25.5, 0 19.1, 0 0 M0 31.91 C0 21.15, 0 10.39, 0 0" stroke="#1e1e1e" stroke-width="2" fill="none"></path></g><g transform="translate(582.6825234738734 205.65406044572464) rotate(0 28.45703125 9.199999999999989)"><text x="28.45703125" y="0" font-family="Helvetica, Segoe UI Emoji" font-size="16px" fill="#1e1e1e" text-anchor="middle" style="white-space: pre;" direction="ltr" dominant-baseline="text-before-edge">int refs_</text></g><g stroke-linecap="round" transform="translate(551.0506127020259 230.81056207704674) rotate(0 60.088940930680394 15.956503442284713)"><path d="M0 0 L120.18 0 L120.18 31.91 L0 31.91" stroke="none" stroke-width="0" fill="#f8f9fa"></path><path d="M0 0 C33.9 0, 67.79 0, 120.18 0 M0 0 C28.67 0, 57.34 0, 120.18 0 M120.18 0 C120.18 6.77, 120.18 13.55, 120.18 31.91 M120.18 0 C120.18 7.77, 120.18 15.54, 120.18 31.91 M120.18 31.91 C75.19 31.91, 30.2 31.91, 0 31.91 M120.18 31.91 C94.13 31.91, 68.08 31.91, 0 31.91 M0 31.91 C0 22.34, 0 12.76, 0 0 M0 31.91 C0 25, 0 18.1, 0 0" stroke="#1e1e1e" stroke-width="2" fill="none"></path></g><g transform="translate(592.4637723827062 237.56706551933146) rotate(0 18.67578125 9.199999999999989)"><text x="18.67578125" y="0" font-family="Helvetica, Segoe UI Emoji" font-size="16px" fill="#1e1e1e" text-anchor="middle" style="white-space: pre;" direction="ltr" dominant-baseline="text-before-edge">files_</text></g><g stroke-linecap="round" transform="translate(551.0506137870622 262.7235709162429) rotate(0 60.088940930680394 15.956503442284713)"><path d="M0 0 L120.18 0 L120.18 31.91 L0 31.91" stroke="none" stroke-width="0" fill="#e9ecef"></path><path d="M0 0 C45.21 0, 90.43 0, 120.18 0 M0 0 C35.18 0, 70.36 0, 120.18 0 M120.18 0 C120.18 9.61, 120.18 19.22, 120.18 31.91 M120.18 0 C120.18 7.53, 120.18 15.06, 120.18 31.91 M120.18 31.91 C91.33 31.91, 62.49 31.91, 0 31.91 M120.18 31.91 C93.65 31.91, 67.13 31.91, 0 31.91 M0 31.91 C0 22.77, 0 13.63, 0 0 M0 31.91 C0 23.97, 0 16.03, 0 0" stroke="#1e1e1e" stroke-width="2" fill="none"></path></g><g transform="translate(604.5635735776058 268.6800743585277) rotate(0 6.575981140136719 10)"><text x="6.575981140136719" y="0" font-family="Virgil, Segoe UI Emoji" font-size="16px" fill="#1e1e1e" text-anchor="middle" style="white-space: pre;" direction="ltr" dominant-baseline="text-before-edge">...</text></g><g stroke-linecap="round" transform="translate(715.3795960299474 103.15853241863104) rotate(0 60.088940930680394 15.956503442284713)"><path d="M0 0 L120.18 0 L120.18 31.91 L0 31.91" stroke="none" stroke-width="0" fill="#e9ecef"></path><path d="M0 0 C45.9 0, 91.81 0, 120.18 0 M0 0 C39.18 0, 78.35 0, 120.18 0 M120.18 0 C120.18 10.78, 120.18 21.55, 120.18 31.91 M120.18 0 C120.18 8.37, 120.18 16.74, 120.18 31.91 M120.18 31.91 C76.69 31.91, 33.2 31.91, 0 31.91 M120.18 31.91 C76.2 31.91, 32.22 31.91, 0 31.91 M0 31.91 C0 21.68, 0 11.46, 0 0 M0 31.91 C0 19.23, 0 6.54, 0 0" stroke="#1e1e1e" stroke-width="2" fill="none"></path></g><g transform="translate(768.892555820491 109.11503586091575) rotate(0 6.575981140136719 10)"><text x="6.575981140136719" y="0" font-family="Virgil, Segoe UI Emoji" font-size="16px" fill="#1e1e1e" text-anchor="middle" style="white-space: pre;" direction="ltr" dominant-baseline="text-before-edge">...</text></g><g stroke-linecap="round" transform="translate(715.3795952372532 135.07154008796206) rotate(0 60.088940930680394 15.956503464372076)"><path d="M0 0 L120.18 0 L120.18 31.91 L0 31.91" stroke="none" stroke-width="0" fill="#ffffff"></path><path d="M0 0 C27.25 0, 54.5 0, 120.18 0 M0 0 C34.4 0, 68.81 0, 120.18 0 M120.18 0 C120.18 8.92, 120.18 17.83, 120.18 31.91 M120.18 0 C120.18 9.68, 120.18 19.37, 120.18 31.91 M120.18 31.91 C72.83 31.91, 25.49 31.91, 0 31.91 M120.18 31.91 C84.27 31.91, 48.36 31.91, 0 31.91 M0 31.91 C0 19.6, 0 7.29, 0 0 M0 31.91 C0 24.16, 0 16.42, 0 0" stroke="#1e1e1e" stroke-width="2" fill="none"></path></g><g transform="translate(723.8747861679335 141.82804355233415) rotate(0 51.59375 9.199999999999989)"><text x="51.59375" y="0" font-family="Helvetica, Segoe UI Emoji" font-size="16px" fill="#1e1e1e" text-anchor="middle" style="white-space: pre;" direction="ltr" dominant-baseline="text-before-edge">Version* next_</text></g><g stroke-linecap="round" transform="translate(715.3795967218648 166.98454809525268) rotate(0 60.088940930680394 15.956503442284713)"><path d="M0 0 L120.18 0 L120.18 31.91 L0 31.91" stroke="none" stroke-width="0" fill="#ffffff"></path><path d="M0 0 C28.41 0, 56.82 0, 120.18 0 M0 0 C42.88 0, 85.77 0, 120.18 0 M120.18 0 C120.18 9.8, 120.18 19.6, 120.18 31.91 M120.18 0 C120.18 8.74, 120.18 17.47, 120.18 31.91 M120.18 31.91 C88.63 31.91, 57.09 31.91, 0 31.91 M120.18 31.91 C74.31 31.91, 28.43 31.91, 0 31.91 M0 31.91 C0 22.19, 0 12.47, 0 0 M0 31.91 C0 24.78, 0 17.65, 0 0" stroke="#1e1e1e" stroke-width="2" fill="none"></path></g><g transform="translate(723.4333814025451 173.7410515375374) rotate(0 52.03515625 9.199999999999989)"><text x="52.03515625" y="0" font-family="Helvetica, Segoe UI Emoji" font-size="16px" fill="#1e1e1e" text-anchor="middle" style="white-space: pre;" direction="ltr" dominant-baseline="text-before-edge">Version* prev_</text></g><g stroke-linecap="round" transform="translate(715.3795963109812 198.89755545230017) rotate(0 60.088940930680394 15.956503442284713)"><path d="M0 0 L120.18 0 L120.18 31.91 L0 31.91" stroke="none" stroke-width="0" fill="#f8f9fa"></path><path d="M0 0 C26.81 0, 53.62 0, 120.18 0 M0 0 C26.86 0, 53.72 0, 120.18 0 M120.18 0 C120.18 11.75, 120.18 23.5, 120.18 31.91 M120.18 0 C120.18 11.54, 120.18 23.07, 120.18 31.91 M120.18 31.91 C75.12 31.91, 30.06 31.91, 0 31.91 M120.18 31.91 C74.49 31.91, 28.8 31.91, 0 31.91 M0 31.91 C0 23.3, 0 14.69, 0 0 M0 31.91 C0 20.51, 0 9.1, 0 0" stroke="#1e1e1e" stroke-width="2" fill="none"></path></g><g transform="translate(747.0115059916616 205.6540588945849) rotate(0 28.45703125 9.199999999999989)"><text x="28.45703125" y="0" font-family="Helvetica, Segoe UI Emoji" font-size="16px" fill="#1e1e1e" text-anchor="middle" style="white-space: pre;" direction="ltr" dominant-baseline="text-before-edge">int refs_</text></g><g stroke-linecap="round" transform="translate(715.3795952198141 230.81056052590705) rotate(0 60.088940930680394 15.956503442284713)"><path d="M0 0 L120.18 0 L120.18 31.91 L0 31.91" stroke="none" stroke-width="0" fill="#f8f9fa"></path><path d="M0 0 C29 0, 58 0, 120.18 0 M0 0 C30.63 0, 61.27 0, 120.18 0 M120.18 0 C120.18 6.45, 120.18 12.91, 120.18 31.91 M120.18 0 C120.18 9.18, 120.18 18.35, 120.18 31.91 M120.18 31.91 C86.4 31.91, 52.63 31.91, 0 31.91 M120.18 31.91 C91.03 31.91, 61.89 31.91, 0 31.91 M0 31.91 C0 20.22, 0 8.53, 0 0 M0 31.91 C0 22.49, 0 13.08, 0 0" stroke="#1e1e1e" stroke-width="2" fill="none"></path></g><g transform="translate(756.7927549004944 237.56706396819177) rotate(0 18.67578125 9.199999999999989)"><text x="18.67578125" y="0" font-family="Helvetica, Segoe UI Emoji" font-size="16px" fill="#1e1e1e" text-anchor="middle" style="white-space: pre;" direction="ltr" dominant-baseline="text-before-edge">files_</text></g><g stroke-linecap="round" transform="translate(715.3795963048503 262.72356936510323) rotate(0 60.088940930680394 15.956503442284713)"><path d="M0 0 L120.18 0 L120.18 31.91 L0 31.91" stroke="none" stroke-width="0" fill="#e9ecef"></path><path d="M0 0 C34.56 0, 69.13 0, 120.18 0 M0 0 C24.33 0, 48.67 0, 120.18 0 M120.18 0 C120.18 7.69, 120.18 15.38, 120.18 31.91 M120.18 0 C120.18 6.56, 120.18 13.13, 120.18 31.91 M120.18 31.91 C75.38 31.91, 30.58 31.91, 0 31.91 M120.18 31.91 C72.12 31.91, 24.07 31.91, 0 31.91 M0 31.91 C0 23.26, 0 14.62, 0 0 M0 31.91 C0 24.88, 0 17.85, 0 0" stroke="#1e1e1e" stroke-width="2" fill="none"></path></g><g transform="translate(768.892556095394 268.6800728073879) rotate(0 6.575981140136719 10)"><text x="6.575981140136719" y="0" font-family="Virgil, Segoe UI Emoji" font-size="16px" fill="#1e1e1e" text-anchor="middle" style="white-space: pre;" direction="ltr" dominant-baseline="text-before-edge">...</text></g><g stroke-linecap="round" transform="translate(879.7085815030692 103.15853228708332) rotate(0 60.088940930680394 15.956503442284713)"><path d="M0 0 L120.18 0 L120.18 31.91 L0 31.91" stroke="none" stroke-width="0" fill="#e9ecef"></path><path d="M0 0 C41.28 0, 82.57 0, 120.18 0 M0 0 C28.13 0, 56.26 0, 120.18 0 M120.18 0 C120.18 7.01, 120.18 14.02, 120.18 31.91 M120.18 0 C120.18 6.79, 120.18 13.59, 120.18 31.91 M120.18 31.91 C81.37 31.91, 42.57 31.91, 0 31.91 M120.18 31.91 C94.42 31.91, 68.65 31.91, 0 31.91 M0 31.91 C0 22.26, 0 12.61, 0 0 M0 31.91 C0 22.05, 0 12.19, 0 0" stroke="#1e1e1e" stroke-width="2" fill="none"></path></g><g transform="translate(933.2215412936129 109.11503572936803) rotate(0 6.575981140136719 10)"><text x="6.575981140136719" y="0" font-family="Virgil, Segoe UI Emoji" font-size="16px" fill="#1e1e1e" text-anchor="middle" style="white-space: pre;" direction="ltr" dominant-baseline="text-before-edge">...</text></g><g stroke-linecap="round" transform="translate(879.708580710375 135.07153995641434) rotate(0 60.088940930680394 15.956503464372076)"><path d="M0 0 L120.18 0 L120.18 31.91 L0 31.91" stroke="none" stroke-width="0" fill="#ffffff"></path><path d="M0 0 C27.52 0, 55.05 0, 120.18 0 M0 0 C34.92 0, 69.84 0, 120.18 0 M120.18 0 C120.18 7.01, 120.18 14.01, 120.18 31.91 M120.18 0 C120.18 7.46, 120.18 14.91, 120.18 31.91 M120.18 31.91 C94.41 31.91, 68.64 31.91, 0 31.91 M120.18 31.91 C82.53 31.91, 44.88 31.91, 0 31.91 M0 31.91 C0 19.22, 0 6.53, 0 0 M0 31.91 C0 20.56, 0 9.21, 0 0" stroke="#1e1e1e" stroke-width="2" fill="none"></path></g><g transform="translate(888.2037716410554 141.82804342078643) rotate(0 51.59375 9.199999999999989)"><text x="51.59375" y="0" font-family="Helvetica, Segoe UI Emoji" font-size="16px" fill="#1e1e1e" text-anchor="middle" style="white-space: pre;" direction="ltr" dominant-baseline="text-before-edge">Version* next_</text></g><g stroke-linecap="round" transform="translate(879.7085821949867 166.98454796370496) rotate(0 60.088940930680394 15.956503442284713)"><path d="M0 0 L120.18 0 L120.18 31.91 L0 31.91" stroke="none" stroke-width="0" fill="#ffffff"></path><path d="M0 0 C25.39 0, 50.79 0, 120.18 0 M0 0 C33.11 0, 66.21 0, 120.18 0 M120.18 0 C120.18 6.86, 120.18 13.71, 120.18 31.91 M120.18 0 C120.18 12.08, 120.18 24.16, 120.18 31.91 M120.18 31.91 C77.89 31.91, 35.61 31.91, 0 31.91 M120.18 31.91 C90.27 31.91, 60.36 31.91, 0 31.91 M0 31.91 C0 22.21, 0 12.52, 0 0 M0 31.91 C0 22.15, 0 12.4, 0 0" stroke="#1e1e1e" stroke-width="2" fill="none"></path></g><g transform="translate(887.762366875667 173.74105140598968) rotate(0 52.03515625 9.199999999999989)"><text x="52.03515625" y="0" font-family="Helvetica, Segoe UI Emoji" font-size="16px" fill="#1e1e1e" text-anchor="middle" style="white-space: pre;" direction="ltr" dominant-baseline="text-before-edge">Version* prev_</text></g><g stroke-linecap="round" transform="translate(879.7085817841031 198.89755532075245) rotate(0 60.088940930680394 15.956503442284713)"><path d="M0 0 L120.18 0 L120.18 31.91 L0 31.91" stroke="none" stroke-width="0" fill="#f8f9fa"></path><path d="M0 0 C47.08 0, 94.16 0, 120.18 0 M0 0 C32.52 0, 65.03 0, 120.18 0 M120.18 0 C120.18 9.87, 120.18 19.74, 120.18 31.91 M120.18 0 C120.18 9.24, 120.18 18.48, 120.18 31.91 M120.18 31.91 C82.17 31.91, 44.15 31.91, 0 31.91 M120.18 31.91 C78.33 31.91, 36.48 31.91, 0 31.91 M0 31.91 C0 20.6, 0 9.29, 0 0 M0 31.91 C0 22.45, 0 12.98, 0 0" stroke="#1e1e1e" stroke-width="2" fill="none"></path></g><g transform="translate(911.3404914647834 205.65405876303717) rotate(0 28.45703125 9.199999999999989)"><text x="28.45703125" y="0" font-family="Helvetica, Segoe UI Emoji" font-size="16px" fill="#1e1e1e" text-anchor="middle" style="white-space: pre;" direction="ltr" dominant-baseline="text-before-edge">int refs_</text></g><g stroke-linecap="round" transform="translate(879.7085806929359 230.81056039435933) rotate(0 60.088940930680394 15.956503442284713)"><path d="M0 0 L120.18 0 L120.18 31.91 L0 31.91" stroke="none" stroke-width="0" fill="#f8f9fa"></path><path d="M0 0 C42.63 0, 85.25 0, 120.18 0 M0 0 C42.03 0, 84.07 0, 120.18 0 M120.18 0 C120.18 10.83, 120.18 21.66, 120.18 31.91 M120.18 0 C120.18 11.19, 120.18 22.38, 120.18 31.91 M120.18 31.91 C87.52 31.91, 54.87 31.91, 0 31.91 M120.18 31.91 C92.46 31.91, 64.75 31.91, 0 31.91 M0 31.91 C0 21.84, 0 11.76, 0 0 M0 31.91 C0 22.09, 0 12.27, 0 0" stroke="#1e1e1e" stroke-width="2" fill="none"></path></g><g transform="translate(921.1217403736163 237.56706383664405) rotate(0 18.67578125 9.199999999999989)"><text x="18.67578125" y="0" font-family="Helvetica, Segoe UI Emoji" font-size="16px" fill="#1e1e1e" text-anchor="middle" style="white-space: pre;" direction="ltr" dominant-baseline="text-before-edge">files_</text></g><g stroke-linecap="round" transform="translate(879.7085817779722 262.7235692335555) rotate(0 60.088940930680394 15.956503442284713)"><path d="M0 0 L120.18 0 L120.18 31.91 L0 31.91" stroke="none" stroke-width="0" fill="#e9ecef"></path><path d="M0 0 C32.1 0, 64.21 0, 120.18 0 M0 0 C33.56 0, 67.11 0, 120.18 0 M120.18 0 C120.18 11.96, 120.18 23.91, 120.18 31.91 M120.18 0 C120.18 12.39, 120.18 24.78, 120.18 31.91 M120.18 31.91 C88.34 31.91, 56.51 31.91, 0 31.91 M120.18 31.91 C83.23 31.91, 46.28 31.91, 0 31.91 M0 31.91 C0 22.76, 0 13.61, 0 0 M0 31.91 C0 23.6, 0 15.28, 0 0" stroke="#1e1e1e" stroke-width="2" fill="none"></path></g><g transform="translate(933.2215415685158 268.68007267584017) rotate(0 6.575981140136719 10)"><text x="6.575981140136719" y="0" font-family="Virgil, Segoe UI Emoji" font-size="16px" fill="#1e1e1e" text-anchor="middle" style="white-space: pre;" direction="ltr" dominant-baseline="text-before-edge">...</text></g><g stroke-linecap="round" transform="translate(1044.03757005335 103.15853238694964) rotate(0 60.08894093068034 15.956503442284713)"><path d="M0 0 L120.18 0 L120.18 31.91 L0 31.91" stroke="none" stroke-width="0" fill="#e9ecef"></path><path d="M0 0 C34.86 0, 69.73 0, 120.18 0 M0 0 C43.56 0, 87.12 0, 120.18 0 M120.18 0 C120.18 10.19, 120.18 20.38, 120.18 31.91 M120.18 0 C120.18 8.94, 120.18 17.89, 120.18 31.91 M120.18 31.91 C85.31 31.91, 50.44 31.91, 0 31.91 M120.18 31.91 C95.25 31.91, 70.32 31.91, 0 31.91 M0 31.91 C0 23.07, 0 14.22, 0 0 M0 31.91 C0 22.88, 0 13.85, 0 0" stroke="#1e1e1e" stroke-width="2" fill="none"></path></g><g transform="translate(1097.5505298438936 109.11503582923436) rotate(0 6.575981140136719 10)"><text x="6.575981140136719" y="0" font-family="Virgil, Segoe UI Emoji" font-size="16px" fill="#1e1e1e" text-anchor="middle" style="white-space: pre;" direction="ltr" dominant-baseline="text-before-edge">...</text></g><g stroke-linecap="round" transform="translate(1044.0375692606558 135.07154005628078) rotate(0 60.08894093068034 15.956503464372076)"><path d="M0 0 L120.18 0 L120.18 31.91 L0 31.91" stroke="none" stroke-width="0" fill="#ffffff"></path><path d="M0 0 C41.24 0, 82.49 0, 120.18 0 M0 0 C32.92 0, 65.84 0, 120.18 0 M120.18 0 C120.18 11.64, 120.18 23.29, 120.18 31.91 M120.18 0 C120.18 9.88, 120.18 19.76, 120.18 31.91 M120.18 31.91 C91.82 31.91, 63.47 31.91, 0 31.91 M120.18 31.91 C90.08 31.91, 59.99 31.91, 0 31.91 M0 31.91 C0 21.04, 0 10.16, 0 0 M0 31.91 C0 25.01, 0 18.11, 0 0" stroke="#1e1e1e" stroke-width="2" fill="none"></path></g><g transform="translate(1052.5327601913361 141.82804352065287) rotate(0 51.59375 9.199999999999989)"><text x="51.59375" y="0" font-family="Helvetica, Segoe UI Emoji" font-size="16px" fill="#1e1e1e" text-anchor="middle" style="white-space: pre;" direction="ltr" dominant-baseline="text-before-edge">Version* next_</text></g><g stroke-linecap="round" transform="translate(1044.0375707452677 166.9845480635715) rotate(0 60.08894093068034 15.956503442284713)"><path d="M0 0 L120.18 0 L120.18 31.91 L0 31.91" stroke="none" stroke-width="0" fill="#ffffff"></path><path d="M0 0 C33.11 0, 66.23 0, 120.18 0 M0 0 C41.98 0, 83.96 0, 120.18 0 M120.18 0 C120.18 8.45, 120.18 16.91, 120.18 31.91 M120.18 0 C120.18 12.67, 120.18 25.33, 120.18 31.91 M120.18 31.91 C94.55 31.91, 68.93 31.91, 0 31.91 M120.18 31.91 C82.62 31.91, 45.07 31.91, 0 31.91 M0 31.91 C0 19.87, 0 7.82, 0 0 M0 31.91 C0 24.45, 0 16.98, 0 0" stroke="#1e1e1e" stroke-width="2" fill="none"></path></g><g transform="translate(1052.091355425948 173.74105150585623) rotate(0 52.03515625 9.199999999999989)"><text x="52.03515625" y="0" font-family="Helvetica, Segoe UI Emoji" font-size="16px" fill="#1e1e1e" text-anchor="middle" style="white-space: pre;" direction="ltr" dominant-baseline="text-before-edge">Version* prev_</text></g><g stroke-linecap="round" transform="translate(1044.0375703343839 198.8975554206189) rotate(0 60.08894093068034 15.956503442284713)"><path d="M0 0 L120.18 0 L120.18 31.91 L0 31.91" stroke="none" stroke-width="0" fill="#f8f9fa"></path><path d="M0 0 C43.31 0, 86.63 0, 120.18 0 M0 0 C41.88 0, 83.77 0, 120.18 0 M120.18 0 C120.18 12.6, 120.18 25.21, 120.18 31.91 M120.18 0 C120.18 11.56, 120.18 23.13, 120.18 31.91 M120.18 31.91 C75.11 31.91, 30.04 31.91, 0 31.91 M120.18 31.91 C72.25 31.91, 24.33 31.91, 0 31.91 M0 31.91 C0 19.38, 0 6.86, 0 0 M0 31.91 C0 23.9, 0 15.88, 0 0" stroke="#1e1e1e" stroke-width="2" fill="none"></path></g><g transform="translate(1075.6694800150642 205.6540588629036) rotate(0 28.45703125 9.199999999999989)"><text x="28.45703125" y="0" font-family="Helvetica, Segoe UI Emoji" font-size="16px" fill="#1e1e1e" text-anchor="middle" style="white-space: pre;" direction="ltr" dominant-baseline="text-before-edge">int refs_</text></g><g stroke-linecap="round" transform="translate(1044.037569243217 230.81056049422565) rotate(0 60.08894093068045 15.956503442284713)"><path d="M0 0 L120.18 0 L120.18 31.91 L0 31.91" stroke="none" stroke-width="0" fill="#f8f9fa"></path><path d="M0 0 C42.54 0, 85.08 0, 120.18 0 M0 0 C26.87 0, 53.73 0, 120.18 0 M120.18 0 C120.18 8.41, 120.18 16.82, 120.18 31.91 M120.18 0 C120.18 11.75, 120.18 23.5, 120.18 31.91 M120.18 31.91 C89.28 31.91, 58.38 31.91, 0 31.91 M120.18 31.91 C95.33 31.91, 70.49 31.91, 0 31.91 M0 31.91 C0 24.76, 0 17.6, 0 0 M0 31.91 C0 24.71, 0 17.5, 0 0" stroke="#1e1e1e" stroke-width="2" fill="none"></path></g><g transform="translate(1085.4507289238973 237.56706393651038) rotate(0 18.67578125 9.199999999999989)"><text x="18.67578125" y="0" font-family="Helvetica, Segoe UI Emoji" font-size="16px" fill="#1e1e1e" text-anchor="middle" style="white-space: pre;" direction="ltr" dominant-baseline="text-before-edge">files_</text></g><g stroke-linecap="round" transform="translate(1044.0375703282532 262.7235693334219) rotate(0 60.08894093068045 15.956503442284713)"><path d="M0 0 L120.18 0 L120.18 31.91 L0 31.91" stroke="none" stroke-width="0" fill="#e9ecef"></path><path d="M0 0 C47.49 0, 94.97 0, 120.18 0 M0 0 C26.28 0, 52.57 0, 120.18 0 M120.18 0 C120.18 6.76, 120.18 13.52, 120.18 31.91 M120.18 0 C120.18 6.98, 120.18 13.97, 120.18 31.91 M120.18 31.91 C86.75 31.91, 53.31 31.91, 0 31.91 M120.18 31.91 C93.03 31.91, 65.88 31.91, 0 31.91 M0 31.91 C0 24.14, 0 16.37, 0 0 M0 31.91 C0 23.7, 0 15.49, 0 0" stroke="#1e1e1e" stroke-width="2" fill="none"></path></g><g transform="translate(1097.5505301187968 268.68007277570655) rotate(0 6.575981140136719 10)"><text x="6.575981140136719" y="0" font-family="Virgil, Segoe UI Emoji" font-size="16px" fill="#1e1e1e" text-anchor="middle" style="white-space: pre;" direction="ltr" dominant-baseline="text-before-edge">...</text></g><g stroke-linecap="round"><g transform="translate(664.186980632856 151.92094209329375) rotate(0 28.381826006198253 -17.585589276720356)"><path d="M0 0 C11.68 -0.06, 23.35 -0.12, 32.58 -0.17 M0 0 C9.35 -0.05, 18.69 -0.1, 32.58 -0.17 M32.58 -0.17 C32.58 -10.46, 32.58 -20.74, 32.58 -35.17 M32.58 -0.17 C32.58 -10.82, 32.58 -21.46, 32.58 -35.17 M32.58 -35.17 C37.85 -35.12, 43.12 -35.07, 56.76 -34.93 M32.58 -35.17 C37.98 -35.12, 43.39 -35.06, 56.76 -34.93" stroke="#1e1e1e" stroke-width="2" fill="none"></path></g><g transform="translate(664.186980632856 151.92094209329375) rotate(0 28.381826006198253 -17.585589276720356)"><path d="M45.36 -30.91 C49.45 -32.35, 53.54 -33.79, 56.76 -34.93 M45.36 -30.91 C48.63 -32.06, 51.9 -33.22, 56.76 -34.93" stroke="#1e1e1e" stroke-width="2" fill="none"></path></g><g transform="translate(664.186980632856 151.92094209329375) rotate(0 28.381826006198253 -17.585589276720356)"><path d="M45.44 -39.18 C49.5 -37.66, 53.56 -36.13, 56.76 -34.93 M45.44 -39.18 C48.69 -37.96, 51.94 -36.74, 56.76 -34.93" stroke="#1e1e1e" stroke-width="2" fill="none"></path></g></g><mask></mask><g stroke-linecap="round"><g transform="translate(822.9449301548691 152.65713122540885) rotate(0 28.381826006198253 -17.585589276720356)"><path d="M0 0 C10.08 -0.05, 20.16 -0.1, 32.58 -0.17 M0 0 C6.76 -0.04, 13.53 -0.07, 32.58 -0.17 M32.58 -0.17 C32.58 -12.65, 32.58 -25.14, 32.58 -35.17 M32.58 -0.17 C32.58 -12.61, 32.58 -25.04, 32.58 -35.17 M32.58 -35.17 C38.51 -35.11, 44.44 -35.05, 56.76 -34.93 M32.58 -35.17 C39.36 -35.1, 46.14 -35.04, 56.76 -34.93" stroke="#1e1e1e" stroke-width="2" fill="none"></path></g><g transform="translate(822.9449301548691 152.65713122540885) rotate(0 28.381826006198253 -17.585589276720356)"><path d="M45.36 -30.91 C48.89 -32.15, 52.42 -33.4, 56.76 -34.93 M45.36 -30.91 C47.73 -31.74, 50.1 -32.58, 56.76 -34.93" stroke="#1e1e1e" stroke-width="2" fill="none"></path></g><g transform="translate(822.9449301548691 152.65713122540885) rotate(0 28.381826006198253 -17.585589276720356)"><path d="M45.44 -39.18 C48.95 -37.86, 52.45 -36.55, 56.76 -34.93 M45.44 -39.18 C47.79 -38.3, 50.14 -37.41, 56.76 -34.93" stroke="#1e1e1e" stroke-width="2" fill="none"></path></g></g><mask></mask><g stroke-linecap="round"><g transform="translate(994.4004714637355 152.65712875281727) rotate(0 28.381826006198253 -17.585589276720356)"><path d="M0 0 C10.45 -0.05, 20.9 -0.11, 32.58 -0.17 M0 0 C12.76 -0.07, 25.52 -0.13, 32.58 -0.17 M32.58 -0.17 C32.58 -12.24, 32.58 -24.31, 32.58 -35.17 M32.58 -0.17 C32.58 -14.14, 32.58 -28.1, 32.58 -35.17 M32.58 -35.17 C41.54 -35.08, 50.49 -34.99, 56.76 -34.93 M32.58 -35.17 C41.75 -35.08, 50.93 -34.99, 56.76 -34.93" stroke="#1e1e1e" stroke-width="2" fill="none"></path></g><g transform="translate(994.4004714637355 152.65712875281727) rotate(0 28.381826006198253 -17.585589276720356)"><path d="M45.36 -30.91 C49.02 -32.2, 52.68 -33.49, 56.76 -34.93 M45.36 -30.91 C49.83 -32.48, 54.29 -34.06, 56.76 -34.93" stroke="#1e1e1e" stroke-width="2" fill="none"></path></g><g transform="translate(994.4004714637355 152.65712875281727) rotate(0 28.381826006198253 -17.585589276720356)"><path d="M45.44 -39.18 C49.07 -37.82, 52.71 -36.45, 56.76 -34.93 M45.44 -39.18 C49.88 -37.51, 54.31 -35.85, 56.76 -34.93" stroke="#1e1e1e" stroke-width="2" fill="none"></path></g></g><mask></mask><g stroke-linecap="round"><g transform="translate(720.2263463559149 182.94916028530648) rotate(0 -31.07089782178207 -33.36199253613316)"><path d="M0 0 C-8.03 0.01, -16.07 0.01, -37.64 0.03 M0 0 C-13.6 0.01, -27.19 0.02, -37.64 0.03 M-37.64 0.03 C-37.55 -16.04, -37.46 -32.11, -37.27 -66.75 M-37.64 0.03 C-37.56 -14.15, -37.48 -28.33, -37.27 -66.75 M-37.27 -66.75 C-47.05 -66.7, -56.83 -66.64, -62.14 -66.61 M-37.27 -66.75 C-46.59 -66.7, -55.91 -66.64, -62.14 -66.61" stroke="#1e1e1e" stroke-width="2" fill="none"></path></g><g transform="translate(720.2263463559149 182.94916028530648) rotate(0 -31.07089782178207 -33.36199253613316)"><path d="M-50.48 -70.93 C-52.97 -70.01, -55.46 -69.08, -62.14 -66.61 M-50.48 -70.93 C-54.69 -69.37, -58.9 -67.81, -62.14 -66.61" stroke="#1e1e1e" stroke-width="2" fill="none"></path></g><g transform="translate(720.2263463559149 182.94916028530648) rotate(0 -31.07089782178207 -33.36199253613316)"><path d="M-50.43 -62.42 C-52.93 -63.32, -55.43 -64.21, -62.14 -66.61 M-50.43 -62.42 C-54.66 -63.93, -58.89 -65.45, -62.14 -66.61" stroke="#1e1e1e" stroke-width="2" fill="none"></path></g></g><mask></mask><g stroke-linecap="round"><g transform="translate(879.708580673679 186.01912406521214) rotate(0 -31.07089782178207 -33.36199253613316)"><path d="M0 0 C-12.14 0.01, -24.29 0.02, -37.64 0.03 M0 0 C-9.65 0.01, -19.3 0.01, -37.64 0.03 M-37.64 0.03 C-37.5 -25.62, -37.36 -51.27, -37.27 -66.75 M-37.64 0.03 C-37.5 -25.87, -37.35 -51.76, -37.27 -66.75 M-37.27 -66.75 C-46.26 -66.7, -55.25 -66.65, -62.14 -66.61 M-37.27 -66.75 C-43.12 -66.72, -48.96 -66.68, -62.14 -66.61" stroke="#1e1e1e" stroke-width="2" fill="none"></path></g><g transform="translate(879.708580673679 186.01912406521214) rotate(0 -31.07089782178207 -33.36199253613316)"><path d="M-50.48 -70.93 C-54.24 -69.54, -58.01 -68.14, -62.14 -66.61 M-50.48 -70.93 C-53.47 -69.82, -56.46 -68.71, -62.14 -66.61" stroke="#1e1e1e" stroke-width="2" fill="none"></path></g><g transform="translate(879.708580673679 186.01912406521214) rotate(0 -31.07089782178207 -33.36199253613316)"><path d="M-50.43 -62.42 C-54.21 -63.77, -57.99 -65.12, -62.14 -66.61 M-50.43 -62.42 C-53.43 -63.5, -56.43 -64.57, -62.14 -66.61" stroke="#1e1e1e" stroke-width="2" fill="none"></path></g></g><mask></mask><g stroke-linecap="round"><g transform="translate(1044.5689616036966 183.50168959741276) rotate(0 -31.07089782178207 -33.36199253613316)"><path d="M0 0 C-8.79 0.01, -17.59 0.01, -37.64 0.03 M0 0 C-14.49 0.01, -28.98 0.02, -37.64 0.03 M-37.64 0.03 C-37.52 -22.16, -37.4 -44.35, -37.27 -66.75 M-37.64 0.03 C-37.52 -21.62, -37.4 -43.26, -37.27 -66.75 M-37.27 -66.75 C-44.45 -66.71, -51.63 -66.67, -62.14 -66.61 M-37.27 -66.75 C-46.2 -66.7, -55.14 -66.65, -62.14 -66.61" stroke="#1e1e1e" stroke-width="2" fill="none"></path></g><g transform="translate(1044.5689616036966 183.50168959741276) rotate(0 -31.07089782178207 -33.36199253613316)"><path d="M-50.48 -70.93 C-53.21 -69.92, -55.93 -68.91, -62.14 -66.61 M-50.48 -70.93 C-54.97 -69.27, -59.46 -67.6, -62.14 -66.61" stroke="#1e1e1e" stroke-width="2" fill="none"></path></g><g transform="translate(1044.5689616036966 183.50168959741276) rotate(0 -31.07089782178207 -33.36199253613316)"><path d="M-50.43 -62.42 C-53.17 -63.4, -55.9 -64.38, -62.14 -66.61 M-50.43 -62.42 C-54.94 -64.03, -59.45 -65.65, -62.14 -66.61" stroke="#1e1e1e" stroke-width="2" fill="none"></path></g></g><mask></mask><g stroke-linecap="round" transform="translate(551.0506154441991 341.21637559986414) rotate(0 32.330030233146374 14.199999999999989)"><path d="M0 0 C21.81 0, 43.63 0, 64.66 0 M0 0 C25.41 0, 50.81 0, 64.66 0 M64.66 0 C64.66 8.17, 64.66 16.33, 64.66 28.4 M64.66 0 C64.66 11.08, 64.66 22.17, 64.66 28.4 M64.66 28.4 C40.78 28.4, 16.91 28.4, 0 28.4 M64.66 28.4 C49.28 28.4, 33.9 28.4, 0 28.4 M0 28.4 C0 18.11, 0 7.82, 0 0 M0 28.4 C0 20.35, 0 12.29, 0 0" stroke="#1e1e1e" stroke-width="2" fill="none"></path></g><g transform="translate(574.4822081773456 346.21637559986414) rotate(0 8.8984375 9.199999999999989)"><text x="8.8984375" y="0" font-family="Helvetica, Segoe UI Emoji" font-size="16px" fill="#1e1e1e" text-anchor="middle" style="white-space: pre;" direction="ltr" dominant-baseline="text-before-edge">#0</text></g><g stroke-linecap="round" transform="translate(551.0506150232142 369.6163755678459) rotate(0 16.16501549999998 15)"><path d="M0 0 C11.55 0, 23.11 0, 32.33 0 M0 0 C11.23 0, 22.47 0, 32.33 0 M32.33 0 C32.33 9.58, 32.33 19.17, 32.33 30 M32.33 0 C32.33 11.04, 32.33 22.08, 32.33 30 M32.33 30 C22.95 30, 13.57 30, 0 30 M32.33 30 C23.32 30, 14.3 30, 0 30 M0 30 C0 23.62, 0 17.24, 0 0 M0 30 C0 18.11, 0 6.21, 0 0" stroke="#1e1e1e" stroke-width="2" fill="none"></path></g><g stroke-linecap="round" transform="translate(583.3806450097982 369.6163755380426) rotate(0 16.16501549999998 15)"><path d="M0 0 C12.6 0, 25.19 0, 32.33 0 M0 0 C12.26 0, 24.52 0, 32.33 0 M32.33 0 C32.33 9.16, 32.33 18.32, 32.33 30 M32.33 0 C32.33 9.51, 32.33 19.01, 32.33 30 M32.33 30 C22.23 30, 12.12 30, 0 30 M32.33 30 C24.86 30, 17.38 30, 0 30 M0 30 C0 21.49, 0 12.97, 0 0 M0 30 C0 18.11, 0 6.22, 0 0" stroke="#1e1e1e" stroke-width="2" fill="none"></path></g><g stroke-linecap="round" transform="translate(615.7106748112844 341.21637556784594) rotate(0 48.495047105964886 14.199999999999989)"><path d="M0 0 C27.53 0, 55.05 0, 96.99 0 M0 0 C30.64 0, 61.28 0, 96.99 0 M96.99 0 C96.99 8.15, 96.99 16.3, 96.99 28.4 M96.99 0 C96.99 11.34, 96.99 22.68, 96.99 28.4 M96.99 28.4 C60.06 28.4, 23.13 28.4, 0 28.4 M96.99 28.4 C66.37 28.4, 35.75 28.4, 0 28.4 M0 28.4 C0 18, 0 7.6, 0 0 M0 28.4 C0 19.66, 0 10.93, 0 0" stroke="#1e1e1e" stroke-width="2" fill="none"></path></g><g transform="translate(655.3072844172493 346.21637556784594) rotate(0 8.8984375 9.199999999999989)"><text x="8.8984375" y="0" font-family="Helvetica, Segoe UI Emoji" font-size="16px" fill="#1e1e1e" text-anchor="middle" style="white-space: pre;" direction="ltr" dominant-baseline="text-before-edge">#1</text></g><g stroke-linecap="round" transform="translate(615.7106763117472 369.7130854019107) rotate(0 16.16501549999998 15)"><path d="M0 0 C12.04 0, 24.09 0, 32.33 0 M0 0 C11.29 0, 22.58 0, 32.33 0 M32.33 0 C32.33 6.59, 32.33 13.17, 32.33 30 M32.33 0 C32.33 6.44, 32.33 12.87, 32.33 30 M32.33 30 C22.71 30, 13.1 30, 0 30 M32.33 30 C23.48 30, 14.63 30, 0 30 M0 30 C0 21.42, 0 12.85, 0 0 M0 30 C0 23.16, 0 16.31, 0 0" stroke="#1e1e1e" stroke-width="2" fill="none"></path></g><g stroke-linecap="round" transform="translate(648.0407083612224 369.71308411975167) rotate(0 16.16501549999998 15)"><path d="M0 0 C9.93 0, 19.86 0, 32.33 0 M0 0 C12.21 0, 24.41 0, 32.33 0 M32.33 0 C32.33 11.75, 32.33 23.5, 32.33 30 M32.33 0 C32.33 11.49, 32.33 22.98, 32.33 30 M32.33 30 C23.64 30, 14.94 30, 0 30 M32.33 30 C23.19 30, 14.05 30, 0 30 M0 30 C0 22.29, 0 14.58, 0 0 M0 30 C0 23.97, 0 17.95, 0 0" stroke="#1e1e1e" stroke-width="2" fill="none"></path></g><g stroke-linecap="round" transform="translate(680.3707381681188 369.71308586727787) rotate(0 16.16501549999998 15)"><path d="M0 0 C9.51 0, 19.03 0, 32.33 0 M0 0 C10.58 0, 21.16 0, 32.33 0 M32.33 0 C32.33 8.63, 32.33 17.26, 32.33 30 M32.33 0 C32.33 9.35, 32.33 18.7, 32.33 30 M32.33 30 C24.7 30, 17.08 30, 0 30 M32.33 30 C22.27 30, 12.2 30, 0 30 M0 30 C0 20.1, 0 10.21, 0 0 M0 30 C0 21.36, 0 12.72, 0 0" stroke="#1e1e1e" stroke-width="2" fill="none"></path></g><g stroke-linecap="round" transform="translate(712.7007690967868 341.21637256784595) rotate(0 80.82507746321369 14.199999999999989)"><path d="M0 0 C48.08 0, 96.17 0, 161.65 0 M0 0 C49.55 0, 99.1 0, 161.65 0 M161.65 0 C161.65 10.22, 161.65 20.43, 161.65 28.4 M161.65 0 C161.65 7.94, 161.65 15.88, 161.65 28.4 M161.65 28.4 C118.98 28.4, 76.32 28.4, 0 28.4 M161.65 28.4 C117.38 28.4, 73.12 28.4, 0 28.4 M0 28.4 C0 18.06, 0 7.72, 0 0 M0 28.4 C0 22.66, 0 16.92, 0 0" stroke="#1e1e1e" stroke-width="2" fill="none"></path></g><g transform="translate(784.6274090600004 346.21637256784595) rotate(0 8.8984375 9.199999999999989)"><text x="8.8984375" y="0" font-family="Helvetica, Segoe UI Emoji" font-size="16px" fill="#1e1e1e" text-anchor="middle" style="white-space: pre;" direction="ltr" dominant-baseline="text-before-edge">#2</text></g><g stroke-linecap="round" transform="translate(712.7007692274891 369.71308177072603) rotate(0 16.16501549999998 15)"><path d="M0 0 C6.85 0, 13.7 0, 32.33 0 M0 0 C7.19 0, 14.38 0, 32.33 0 M32.33 0 C32.33 6.58, 32.33 13.15, 32.33 30 M32.33 0 C32.33 6.3, 32.33 12.6, 32.33 30 M32.33 30 C21.9 30, 11.47 30, 0 30 M32.33 30 C20.02 30, 7.71 30, 0 30 M0 30 C0 20.2, 0 10.39, 0 0 M0 30 C0 18.53, 0 7.06, 0 0" stroke="#1e1e1e" stroke-width="2" fill="none"></path></g><g stroke-linecap="round" transform="translate(745.0308018982538 369.7130813623303) rotate(0 16.16501549999998 15)"><path d="M0 0 C7.42 0, 14.83 0, 32.33 0 M0 0 C12.34 0, 24.68 0, 32.33 0 M32.33 0 C32.33 6.4, 32.33 12.81, 32.33 30 M32.33 0 C32.33 10.46, 32.33 20.91, 32.33 30 M32.33 30 C24.4 30, 16.47 30, 0 30 M32.33 30 C21.7 30, 11.06 30, 0 30 M0 30 C0 21.31, 0 12.61, 0 0 M0 30 C0 18.76, 0 7.53, 0 0" stroke="#1e1e1e" stroke-width="2" fill="none"></path></g><g stroke-linecap="round" transform="translate(777.3608350739657 369.713085867278) rotate(0 16.16501549999998 14.999999850283984)"><path d="M0 0 C11.68 0, 23.36 0, 32.33 0 M0 0 C9.02 0, 18.04 0, 32.33 0 M32.33 0 C32.33 6.42, 32.33 12.83, 32.33 30 M32.33 0 C32.33 10.01, 32.33 20.02, 32.33 30 M32.33 30 C23.03 30, 13.72 30, 0 30 M32.33 30 C19.95 30, 7.57 30, 0 30 M0 30 C0 22.39, 0 14.78, 0 0 M0 30 C0 20.84, 0 11.68, 0 0" stroke="#1e1e1e" stroke-width="2" fill="none"></path></g><g stroke-linecap="round" transform="translate(809.6908684256567 369.71308127145585) rotate(0 16.16501549999998 15.000002148195051)"><path d="M0 0 C12.11 0, 24.23 0, 32.33 0 M0 0 C8.99 0, 17.99 0, 32.33 0 M32.33 0 C32.33 7.57, 32.33 15.13, 32.33 30 M32.33 0 C32.33 6.5, 32.33 13, 32.33 30 M32.33 30 C19.99 30, 7.66 30, 0 30 M32.33 30 C24.97 30, 17.61 30, 0 30 M0 30 C0 20.03, 0 10.05, 0 0 M0 30 C0 23.72, 0 17.43, 0 0" stroke="#1e1e1e" stroke-width="2" fill="none"></path></g><g stroke-linecap="round" transform="translate(842.0208934727333 369.7130818927452) rotate(0 16.16501549999998 15.000001837550371)"><path d="M0 0 C10.87 0, 21.74 0, 32.33 0 M0 0 C11.82 0, 23.65 0, 32.33 0 M32.33 0 C32.33 11.77, 32.33 23.54, 32.33 30 M32.33 0 C32.33 10.37, 32.33 20.74, 32.33 30 M32.33 30 C23.67 30, 15.01 30, 0 30 M32.33 30 C25.32 30, 18.31 30, 0 30 M0 30 C0 20.04, 0 10.09, 0 0 M0 30 C0 18.47, 0 6.95, 0 0" stroke="#1e1e1e" stroke-width="2" fill="none"></path></g><g stroke-linecap="round" transform="translate(874.3509238043673 369.71308592243054) rotate(0 16.16501549999998 15)"><path d="M0 0 C8.87 0, 17.74 0, 32.33 0 M0 0 C10.44 0, 20.88 0, 32.33 0 M32.33 0 C32.33 6.76, 32.33 13.52, 32.33 30 M32.33 0 C32.33 10.83, 32.33 21.66, 32.33 30 M32.33 30 C20.8 30, 9.27 30, 0 30 M32.33 30 C19.98 30, 7.63 30, 0 30 M0 30 C0 21.66, 0 13.31, 0 0 M0 30 C0 20.39, 0 10.78, 0 0" stroke="#1e1e1e" stroke-width="2" fill="none"></path></g><g transform="translate(883.9399581642306 374.71308592243054) rotate(0 6.575981140136719 10)"><text x="6.575981140136719" y="0" font-family="Virgil, Segoe UI Emoji" font-size="16px" fill="#1e1e1e" text-anchor="middle" style="white-space: pre;" direction="ltr" dominant-baseline="text-before-edge">...</text></g><g stroke-linecap="round" transform="translate(874.3509337168679 341.21637556784594) rotate(0 16.16501549999998 15)"><path d="M0 0 C11.04 0, 22.07 0, 32.33 0 M0 0 C10.23 0, 20.45 0, 32.33 0 M32.33 0 C32.33 11.06, 32.33 22.12, 32.33 30 M32.33 0 C32.33 10.61, 32.33 21.23, 32.33 30 M32.33 30 C22.1 30, 11.88 30, 0 30 M32.33 30 C22.22 30, 12.12 30, 0 30 M0 30 C0 23.25, 0 16.51, 0 0 M0 30 C0 23.06, 0 16.11, 0 0" stroke="#1e1e1e" stroke-width="2" fill="none"></path></g><g transform="translate(883.9399680767311 346.21637556784594) rotate(0 6.575981140136719 10)"><text x="6.575981140136719" y="0" font-family="Virgil, Segoe UI Emoji" font-size="16px" fill="#1e1e1e" text-anchor="middle" style="white-space: pre;" direction="ltr" dominant-baseline="text-before-edge">...</text></g><g transform="translate(567.001208382032 385.7936854032713) rotate(0 0.00004999999998744897 0.00004999999998744897)" stroke="none"><path fill="#1e1e1e" d="M 3.14,-3.14 Q 3.14,-3.14 3.55,-2.55 3.97,-1.97 4.18,-1.28 4.40,-0.59 4.38,0.11 4.36,0.83 4.11,1.51 3.86,2.18 3.41,2.74 2.96,3.30 2.36,3.69 1.75,4.08 1.05,4.25 0.36,4.42 -0.35,4.36 -1.07,4.31 -1.73,4.02 -2.39,3.74 -2.92,3.26 -3.46,2.78 -3.81,2.15 -4.16,1.53 -4.30,0.82 -4.43,0.11 -4.34,-0.59 -4.24,-1.30 -3.92,-1.94 -3.60,-2.59 -3.09,-3.09 -2.59,-3.60 -1.94,-3.92 -1.30,-4.24 -0.59,-4.34 0.12,-4.43 0.82,-4.30 1.53,-4.16 2.15,-3.81 2.78,-3.46 3.26,-2.92 3.74,-2.39 4.02,-1.73 4.31,-1.07 4.36,-0.35 4.42,0.36 4.25,1.05 4.07,1.75 3.69,2.36 3.30,2.96 2.74,3.41 2.18,3.86 1.51,4.11 0.83,4.36 0.11,4.38 -0.60,4.40 -1.28,4.18 -1.97,3.97 -2.55,3.55 -3.14,3.13 -3.14,3.14 -3.14,3.14 -3.47,2.71 -3.80,2.29 -4.02,1.80 -4.24,1.32 -4.33,0.79 -4.43,0.26 -4.40,-0.26 -4.36,-0.80 -4.20,-1.31 -4.04,-1.82 -3.77,-2.28 -3.49,-2.73 -3.11,-3.11 -2.73,-3.49 -2.28,-3.77 -1.82,-4.05 -1.31,-4.20 -0.80,-4.36 -0.26,-4.40 0.26,-4.43 0.79,-4.33 1.32,-4.24 1.80,-4.02 2.29,-3.80 2.71,-3.47 3.14,-3.14 3.14,-3.14 L 3.14,-3.14 Z"></path></g><g transform="translate(599.4788617050891 385.47834647586524) rotate(0 0.00004999999998744897 0.00004999999998744897)" stroke="none"><path fill="#1e1e1e" d="M 3.14,-3.14 Q 3.14,-3.14 3.55,-2.55 3.97,-1.97 4.18,-1.28 4.40,-0.59 4.38,0.11 4.36,0.83 4.11,1.51 3.86,2.18 3.41,2.74 2.96,3.30 2.36,3.69 1.75,4.08 1.05,4.25 0.36,4.42 -0.35,4.36 -1.07,4.31 -1.73,4.02 -2.39,3.74 -2.92,3.26 -3.46,2.78 -3.81,2.15 -4.16,1.53 -4.30,0.82 -4.43,0.11 -4.34,-0.59 -4.24,-1.30 -3.92,-1.94 -3.60,-2.59 -3.09,-3.09 -2.59,-3.60 -1.94,-3.92 -1.30,-4.24 -0.59,-4.34 0.12,-4.43 0.82,-4.30 1.53,-4.16 2.15,-3.81 2.78,-3.46 3.26,-2.92 3.74,-2.39 4.02,-1.73 4.31,-1.07 4.36,-0.35 4.42,0.36 4.25,1.05 4.07,1.75 3.69,2.36 3.30,2.96 2.74,3.41 2.18,3.86 1.51,4.11 0.83,4.36 0.11,4.38 -0.60,4.40 -1.28,4.18 -1.97,3.97 -2.55,3.55 -3.14,3.13 -3.14,3.14 -3.14,3.14 -3.47,2.71 -3.80,2.29 -4.02,1.80 -4.24,1.32 -4.33,0.79 -4.43,0.26 -4.40,-0.26 -4.36,-0.80 -4.20,-1.31 -4.04,-1.82 -3.77,-2.28 -3.49,-2.73 -3.11,-3.11 -2.73,-3.49 -2.28,-3.77 -1.82,-4.05 -1.31,-4.20 -0.80,-4.36 -0.26,-4.40 0.26,-4.43 0.79,-4.33 1.32,-4.24 1.80,-4.02 2.29,-3.80 2.71,-3.47 3.14,-3.14 3.14,-3.14 L 3.14,-3.14 Z"></path></g><g transform="translate(631.332465732649 385.01361600390044) rotate(0 0.00004999999998744897 0.00004999999998744897)" stroke="none"><path fill="#1e1e1e" d="M 3.14,-3.14 Q 3.14,-3.14 3.55,-2.55 3.97,-1.97 4.18,-1.28 4.40,-0.59 4.38,0.11 4.36,0.83 4.11,1.51 3.86,2.18 3.41,2.74 2.96,3.30 2.36,3.69 1.75,4.08 1.05,4.25 0.36,4.42 -0.35,4.36 -1.07,4.31 -1.73,4.02 -2.39,3.74 -2.92,3.26 -3.46,2.78 -3.81,2.15 -4.16,1.53 -4.30,0.82 -4.43,0.11 -4.34,-0.59 -4.24,-1.30 -3.92,-1.94 -3.60,-2.59 -3.09,-3.09 -2.59,-3.60 -1.94,-3.92 -1.30,-4.24 -0.59,-4.34 0.12,-4.43 0.82,-4.30 1.53,-4.16 2.15,-3.81 2.78,-3.46 3.26,-2.92 3.74,-2.39 4.02,-1.73 4.31,-1.07 4.36,-0.35 4.42,0.36 4.25,1.05 4.07,1.75 3.69,2.36 3.30,2.96 2.74,3.41 2.18,3.86 1.51,4.11 0.83,4.36 0.11,4.38 -0.60,4.40 -1.28,4.18 -1.97,3.97 -2.55,3.55 -3.14,3.13 -3.14,3.14 -3.14,3.14 -3.47,2.71 -3.80,2.29 -4.02,1.80 -4.24,1.32 -4.33,0.79 -4.43,0.26 -4.40,-0.26 -4.36,-0.80 -4.20,-1.31 -4.04,-1.82 -3.77,-2.28 -3.49,-2.73 -3.11,-3.11 -2.73,-3.49 -2.28,-3.77 -1.82,-4.05 -1.31,-4.20 -0.80,-4.36 -0.26,-4.40 0.26,-4.43 0.79,-4.33 1.32,-4.24 1.80,-4.02 2.29,-3.80 2.71,-3.47 3.14,-3.14 3.14,-3.14 L 3.14,-3.14 Z"></path></g><g transform="translate(665.9080269588629 386.13891508758775) rotate(0 0.00004999999998744897 0.00004999999998744897)" stroke="none"><path fill="#1e1e1e" d="M 3.14,-3.14 Q 3.14,-3.14 3.55,-2.55 3.97,-1.97 4.18,-1.28 4.40,-0.59 4.38,0.11 4.36,0.83 4.11,1.51 3.86,2.18 3.41,2.74 2.96,3.30 2.36,3.69 1.75,4.08 1.05,4.25 0.36,4.42 -0.35,4.36 -1.07,4.31 -1.73,4.02 -2.39,3.74 -2.92,3.26 -3.46,2.78 -3.81,2.15 -4.16,1.53 -4.30,0.82 -4.43,0.11 -4.34,-0.59 -4.24,-1.30 -3.92,-1.94 -3.60,-2.59 -3.09,-3.09 -2.59,-3.60 -1.94,-3.92 -1.30,-4.24 -0.59,-4.34 0.12,-4.43 0.82,-4.30 1.53,-4.16 2.15,-3.81 2.78,-3.46 3.26,-2.92 3.74,-2.39 4.02,-1.73 4.31,-1.07 4.36,-0.35 4.42,0.36 4.25,1.05 4.07,1.75 3.69,2.36 3.30,2.96 2.74,3.41 2.18,3.86 1.51,4.11 0.83,4.36 0.11,4.38 -0.60,4.40 -1.28,4.18 -1.97,3.97 -2.55,3.55 -3.14,3.13 -3.14,3.14 -3.14,3.14 -3.47,2.71 -3.80,2.29 -4.02,1.80 -4.24,1.32 -4.33,0.79 -4.43,0.26 -4.40,-0.26 -4.36,-0.80 -4.20,-1.31 -4.04,-1.82 -3.77,-2.28 -3.49,-2.73 -3.11,-3.11 -2.73,-3.49 -2.28,-3.77 -1.82,-4.05 -1.31,-4.20 -0.80,-4.36 -0.26,-4.40 0.26,-4.43 0.79,-4.33 1.32,-4.24 1.80,-4.02 2.29,-3.80 2.71,-3.47 3.14,-3.14 3.14,-3.14 L 3.14,-3.14 Z"></path></g><g transform="translate(697.9076771313272 386.5106901291605) rotate(0 0.00004999999998744897 0.00004999999998744897)" stroke="none"><path fill="#1e1e1e" d="M 3.14,-3.14 Q 3.14,-3.14 3.55,-2.55 3.97,-1.97 4.18,-1.28 4.40,-0.59 4.38,0.11 4.36,0.83 4.11,1.51 3.86,2.18 3.41,2.74 2.96,3.30 2.36,3.69 1.75,4.08 1.05,4.25 0.36,4.42 -0.35,4.36 -1.07,4.31 -1.73,4.02 -2.39,3.74 -2.92,3.26 -3.46,2.78 -3.81,2.15 -4.16,1.53 -4.30,0.82 -4.43,0.11 -4.34,-0.59 -4.24,-1.30 -3.92,-1.94 -3.60,-2.59 -3.09,-3.09 -2.59,-3.60 -1.94,-3.92 -1.30,-4.24 -0.59,-4.34 0.12,-4.43 0.82,-4.30 1.53,-4.16 2.15,-3.81 2.78,-3.46 3.26,-2.92 3.74,-2.39 4.02,-1.73 4.31,-1.07 4.36,-0.35 4.42,0.36 4.25,1.05 4.07,1.75 3.69,2.36 3.30,2.96 2.74,3.41 2.18,3.86 1.51,4.11 0.83,4.36 0.11,4.38 -0.60,4.40 -1.28,4.18 -1.97,3.97 -2.55,3.55 -3.14,3.13 -3.14,3.14 -3.14,3.14 -3.47,2.71 -3.80,2.29 -4.02,1.80 -4.24,1.32 -4.33,0.79 -4.43,0.26 -4.40,-0.26 -4.36,-0.80 -4.20,-1.31 -4.04,-1.82 -3.77,-2.28 -3.49,-2.73 -3.11,-3.11 -2.73,-3.49 -2.28,-3.77 -1.82,-4.05 -1.31,-4.20 -0.80,-4.36 -0.26,-4.40 0.26,-4.43 0.79,-4.33 1.32,-4.24 1.80,-4.02 2.29,-3.80 2.71,-3.47 3.14,-3.14 3.14,-3.14 L 3.14,-3.14 Z"></path></g><g transform="translate(729.9305739413887 386.60695983920994) rotate(0 0.00004999999998744897 0.00004999999998744897)" stroke="none"><path fill="#1e1e1e" d="M 3.14,-3.14 Q 3.14,-3.14 3.55,-2.55 3.97,-1.97 4.18,-1.28 4.40,-0.59 4.38,0.11 4.36,0.83 4.11,1.51 3.86,2.18 3.41,2.74 2.96,3.30 2.36,3.69 1.75,4.08 1.05,4.25 0.36,4.42 -0.35,4.36 -1.07,4.31 -1.73,4.02 -2.39,3.74 -2.92,3.26 -3.46,2.78 -3.81,2.15 -4.16,1.53 -4.30,0.82 -4.43,0.11 -4.34,-0.59 -4.24,-1.30 -3.92,-1.94 -3.60,-2.59 -3.09,-3.09 -2.59,-3.60 -1.94,-3.92 -1.30,-4.24 -0.59,-4.34 0.12,-4.43 0.82,-4.30 1.53,-4.16 2.15,-3.81 2.78,-3.46 3.26,-2.92 3.74,-2.39 4.02,-1.73 4.31,-1.07 4.36,-0.35 4.42,0.36 4.25,1.05 4.07,1.75 3.69,2.36 3.30,2.96 2.74,3.41 2.18,3.86 1.51,4.11 0.83,4.36 0.11,4.38 -0.60,4.40 -1.28,4.18 -1.97,3.97 -2.55,3.55 -3.14,3.13 -3.14,3.14 -3.14,3.14 -3.47,2.71 -3.80,2.29 -4.02,1.80 -4.24,1.32 -4.33,0.79 -4.43,0.26 -4.40,-0.26 -4.36,-0.80 -4.20,-1.31 -4.04,-1.82 -3.77,-2.28 -3.49,-2.73 -3.11,-3.11 -2.73,-3.49 -2.28,-3.77 -1.82,-4.05 -1.31,-4.20 -0.80,-4.36 -0.26,-4.40 0.26,-4.43 0.79,-4.33 1.32,-4.24 1.80,-4.02 2.29,-3.80 2.71,-3.47 3.14,-3.14 3.14,-3.14 L 3.14,-3.14 Z"></path></g><g transform="translate(764.0380904159806 386.1090398906757) rotate(0 0.00004999999998744897 0.00004999999998744897)" stroke="none"><path fill="#1e1e1e" d="M 3.14,-3.14 Q 3.14,-3.14 3.55,-2.55 3.97,-1.97 4.18,-1.28 4.40,-0.59 4.38,0.11 4.36,0.83 4.11,1.51 3.86,2.18 3.41,2.74 2.96,3.30 2.36,3.69 1.75,4.08 1.05,4.25 0.36,4.42 -0.35,4.36 -1.07,4.31 -1.73,4.02 -2.39,3.74 -2.92,3.26 -3.46,2.78 -3.81,2.15 -4.16,1.53 -4.30,0.82 -4.43,0.11 -4.34,-0.59 -4.24,-1.30 -3.92,-1.94 -3.60,-2.59 -3.09,-3.09 -2.59,-3.60 -1.94,-3.92 -1.30,-4.24 -0.59,-4.34 0.12,-4.43 0.82,-4.30 1.53,-4.16 2.15,-3.81 2.78,-3.46 3.26,-2.92 3.74,-2.39 4.02,-1.73 4.31,-1.07 4.36,-0.35 4.42,0.36 4.25,1.05 4.07,1.75 3.69,2.36 3.30,2.96 2.74,3.41 2.18,3.86 1.51,4.11 0.83,4.36 0.11,4.38 -0.60,4.40 -1.28,4.18 -1.97,3.97 -2.55,3.55 -3.14,3.13 -3.14,3.14 -3.14,3.14 -3.47,2.71 -3.80,2.29 -4.02,1.80 -4.24,1.32 -4.33,0.79 -4.43,0.26 -4.40,-0.26 -4.36,-0.80 -4.20,-1.31 -4.04,-1.82 -3.77,-2.28 -3.49,-2.73 -3.11,-3.11 -2.73,-3.49 -2.28,-3.77 -1.82,-4.05 -1.31,-4.20 -0.80,-4.36 -0.26,-4.40 0.26,-4.43 0.79,-4.33 1.32,-4.24 1.80,-4.02 2.29,-3.80 2.71,-3.47 3.14,-3.14 3.14,-3.14 L 3.14,-3.14 Z"></path></g><g transform="translate(794.0427465146507 386.20862388038256) rotate(0 0.00004999999998744897 0.00004999999998744897)" stroke="none"><path fill="#1e1e1e" d="M 3.14,-3.14 Q 3.14,-3.14 3.55,-2.55 3.97,-1.97 4.18,-1.28 4.40,-0.59 4.38,0.11 4.36,0.83 4.11,1.51 3.86,2.18 3.41,2.74 2.96,3.30 2.36,3.69 1.75,4.08 1.05,4.25 0.36,4.42 -0.35,4.36 -1.07,4.31 -1.73,4.02 -2.39,3.74 -2.92,3.26 -3.46,2.78 -3.81,2.15 -4.16,1.53 -4.30,0.82 -4.43,0.11 -4.34,-0.59 -4.24,-1.30 -3.92,-1.94 -3.60,-2.59 -3.09,-3.09 -2.59,-3.60 -1.94,-3.92 -1.30,-4.24 -0.59,-4.34 0.12,-4.43 0.82,-4.30 1.53,-4.16 2.15,-3.81 2.78,-3.46 3.26,-2.92 3.74,-2.39 4.02,-1.73 4.31,-1.07 4.36,-0.35 4.42,0.36 4.25,1.05 4.07,1.75 3.69,2.36 3.30,2.96 2.74,3.41 2.18,3.86 1.51,4.11 0.83,4.36 0.11,4.38 -0.60,4.40 -1.28,4.18 -1.97,3.97 -2.55,3.55 -3.14,3.13 -3.14,3.14 -3.14,3.14 -3.47,2.71 -3.80,2.29 -4.02,1.80 -4.24,1.32 -4.33,0.79 -4.43,0.26 -4.40,-0.26 -4.36,-0.80 -4.20,-1.31 -4.04,-1.82 -3.77,-2.28 -3.49,-2.73 -3.11,-3.11 -2.73,-3.49 -2.28,-3.77 -1.82,-4.05 -1.31,-4.20 -0.80,-4.36 -0.26,-4.40 0.26,-4.43 0.79,-4.33 1.32,-4.24 1.80,-4.02 2.29,-3.80 2.71,-3.47 3.14,-3.14 3.14,-3.14 L 3.14,-3.14 Z"></path></g><g transform="translate(826.497168760109 386.10572561101833) rotate(0 0.00004999999998744897 0.00004999999998744897)" stroke="none"><path fill="#1e1e1e" d="M 3.14,-3.14 Q 3.14,-3.14 3.55,-2.55 3.97,-1.97 4.18,-1.28 4.40,-0.59 4.38,0.11 4.36,0.83 4.11,1.51 3.86,2.18 3.41,2.74 2.96,3.30 2.36,3.69 1.75,4.08 1.05,4.25 0.36,4.42 -0.35,4.36 -1.07,4.31 -1.73,4.02 -2.39,3.74 -2.92,3.26 -3.46,2.78 -3.81,2.15 -4.16,1.53 -4.30,0.82 -4.43,0.11 -4.34,-0.59 -4.24,-1.30 -3.92,-1.94 -3.60,-2.59 -3.09,-3.09 -2.59,-3.60 -1.94,-3.92 -1.30,-4.24 -0.59,-4.34 0.12,-4.43 0.82,-4.30 1.53,-4.16 2.15,-3.81 2.78,-3.46 3.26,-2.92 3.74,-2.39 4.02,-1.73 4.31,-1.07 4.36,-0.35 4.42,0.36 4.25,1.05 4.07,1.75 3.69,2.36 3.30,2.96 2.74,3.41 2.18,3.86 1.51,4.11 0.83,4.36 0.11,4.38 -0.60,4.40 -1.28,4.18 -1.97,3.97 -2.55,3.55 -3.14,3.13 -3.14,3.14 -3.14,3.14 -3.47,2.71 -3.80,2.29 -4.02,1.80 -4.24,1.32 -4.33,0.79 -4.43,0.26 -4.40,-0.26 -4.36,-0.80 -4.20,-1.31 -4.04,-1.82 -3.77,-2.28 -3.49,-2.73 -3.11,-3.11 -2.73,-3.49 -2.28,-3.77 -1.82,-4.05 -1.31,-4.20 -0.80,-4.36 -0.26,-4.40 0.26,-4.43 0.79,-4.33 1.32,-4.24 1.80,-4.02 2.29,-3.80 2.71,-3.47 3.14,-3.14 3.14,-3.14 L 3.14,-3.14 Z"></path></g><g transform="translate(859.5225184665554 386.65343755440585) rotate(0 0.00004999999998744897 0.00004999999998744897)" stroke="none"><path fill="#1e1e1e" d="M 3.14,-3.14 Q 3.14,-3.14 3.55,-2.55 3.97,-1.97 4.18,-1.28 4.40,-0.59 4.38,0.11 4.36,0.83 4.11,1.51 3.86,2.18 3.41,2.74 2.96,3.30 2.36,3.69 1.75,4.08 1.05,4.25 0.36,4.42 -0.35,4.36 -1.07,4.31 -1.73,4.02 -2.39,3.74 -2.92,3.26 -3.46,2.78 -3.81,2.15 -4.16,1.53 -4.30,0.82 -4.43,0.11 -4.34,-0.59 -4.24,-1.30 -3.92,-1.94 -3.60,-2.59 -3.09,-3.09 -2.59,-3.60 -1.94,-3.92 -1.30,-4.24 -0.59,-4.34 0.12,-4.43 0.82,-4.30 1.53,-4.16 2.15,-3.81 2.78,-3.46 3.26,-2.92 3.74,-2.39 4.02,-1.73 4.31,-1.07 4.36,-0.35 4.42,0.36 4.25,1.05 4.07,1.75 3.69,2.36 3.30,2.96 2.74,3.41 2.18,3.86 1.51,4.11 0.83,4.36 0.11,4.38 -0.60,4.40 -1.28,4.18 -1.97,3.97 -2.55,3.55 -3.14,3.13 -3.14,3.14 -3.14,3.14 -3.47,2.71 -3.80,2.29 -4.02,1.80 -4.24,1.32 -4.33,0.79 -4.43,0.26 -4.40,-0.26 -4.36,-0.80 -4.20,-1.31 -4.04,-1.82 -3.77,-2.28 -3.49,-2.73 -3.11,-3.11 -2.73,-3.49 -2.28,-3.77 -1.82,-4.05 -1.31,-4.20 -0.80,-4.36 -0.26,-4.40 0.26,-4.43 0.79,-4.33 1.32,-4.24 1.80,-4.02 2.29,-3.80 2.71,-3.47 3.14,-3.14 3.14,-3.14 L 3.14,-3.14 Z"></path></g><g stroke-linecap="round"><g transform="translate(551.5420460554479 247.71719005018176) rotate(0 -17.94664768175693 68.46340934186779)"><path d="M0 0 C-3.26 2.21, -14.85 8.97, -19.56 13.28 C-24.27 17.59, -25.44 20.09, -28.25 25.84 C-31.06 31.58, -34.99 40.87, -36.43 47.76 C-37.87 54.66, -37.35 60.79, -36.88 67.22 C-36.4 73.64, -35.55 80.44, -33.56 86.29 C-31.58 92.13, -30.7 93.86, -24.94 102.3 C-19.19 110.74, -3.34 131.16, 0.98 136.93" stroke="#1e1e1e" stroke-width="2.5" fill="none" stroke-dasharray="1.5 8"></path></g><g transform="translate(551.5420460554479 247.71719005018176) rotate(0 -17.94664768175693 68.46340934186779)"><path d="M-17.21 125.24 C-12.41 128.33, -7.6 131.42, 0.98 136.93" stroke="#1e1e1e" stroke-width="2.5" fill="none" stroke-dasharray="1.5 6"></path></g><g transform="translate(551.5420460554479 247.71719005018176) rotate(0 -17.94664768175693 68.46340934186779)"><path d="M-5.44 116.28 C-3.75 121.73, -2.05 127.19, 0.98 136.93" stroke="#1e1e1e" stroke-width="2.5" fill="none" stroke-dasharray="1.5 6"></path></g></g><mask></mask><g transform="translate(552.523934776068 321.11965953203617) rotate(0 115.1439208984375 10)"><text x="115.1439208984375" y="0" font-family="Virgil, Segoe UI Emoji" font-size="16px" fill="#1e1e1e" text-anchor="middle" style="white-space: pre;" direction="ltr" dominant-baseline="text-before-edge">FileMeta* files_[kNumLevels]</text></g><g stroke-linecap="round" transform="translate(231.73623002321412 71.89012381210048) rotate(0 107.6314900849307 15)"><path d="M0 0 L215.26 0 L215.26 30 L0 30" stroke="none" stroke-width="0" fill="#e9ecef"></path><path d="M0 0 C63.9 0, 127.8 0, 215.26 0 M0 0 C76.97 0, 153.94 0, 215.26 0 M215.26 0 C215.26 7.05, 215.26 14.09, 215.26 30 M215.26 0 C215.26 11.61, 215.26 23.23, 215.26 30 M215.26 30 C155.36 30, 95.46 30, 0 30 M215.26 30 C152.11 30, 88.96 30, 0 30 M0 30 C0 21, 0 12.01, 0 0 M0 30 C0 22.68, 0 15.36, 0 0" stroke="#1e1e1e" stroke-width="2" fill="none"></path></g><g transform="translate(332.7917389680081 76.89012381210048) rotate(0 6.575981140136719 10)"><text x="6.575981140136719" y="0" font-family="Virgil, Segoe UI Emoji" font-size="16px" fill="#1e1e1e" text-anchor="middle" style="white-space: pre;" direction="ltr" dominant-baseline="text-before-edge">...</text></g><g stroke-linecap="round" transform="translate(231.73623002321418 343.6301635002021) rotate(0 107.63148999999999 15)"><path d="M0 0 L215.26 0 L215.26 30 L0 30" stroke="none" stroke-width="0" fill="#e9ecef"></path><path d="M0 0 C53.99 0, 107.99 0, 215.26 0 M0 0 C77.61 0, 155.23 0, 215.26 0 M215.26 0 C215.26 6.83, 215.26 13.67, 215.26 30 M215.26 0 C215.26 11.03, 215.26 22.06, 215.26 30 M215.26 30 C148.2 30, 81.14 30, 0 30 M215.26 30 C157.6 30, 99.94 30, 0 30 M0 30 C0 18.65, 0 7.3, 0 0 M0 30 C0 20.33, 0 10.66, 0 0" stroke="#1e1e1e" stroke-width="2" fill="none"></path></g><g transform="translate(332.7917388830774 348.6301635002021) rotate(0 6.575981140136719 10)"><text x="6.575981140136719" y="0" font-family="Virgil, Segoe UI Emoji" font-size="16px" fill="#1e1e1e" text-anchor="middle" style="white-space: pre;" direction="ltr" dominant-baseline="text-before-edge">...</text></g><g stroke-linecap="round" transform="translate(231.7362299703258 102.64934079821919) rotate(0 107.6314895264442 120.49041138481337)"><path d="M0 0 L215.26 0 L215.26 240.98 L0 240.98" stroke="none" stroke-width="0" fill="#ffffff"></path><path d="M0 0 C44.65 0, 89.3 0, 215.26 0 M0 0 C75.69 0, 151.37 0, 215.26 0 M215.26 0 C215.26 50.21, 215.26 100.43, 215.26 240.98 M215.26 0 C215.26 90.88, 215.26 181.75, 215.26 240.98 M215.26 240.98 C161.51 240.98, 107.75 240.98, 0 240.98 M215.26 240.98 C129.28 240.98, 43.29 240.98, 0 240.98 M0 240.98 C0 191.44, 0 141.9, 0 0 M0 240.98 C0 177.32, 0 113.66, 0 0" stroke="#1e1e1e" stroke-width="2" fill="none"></path></g><g stroke-linecap="round" transform="translate(243.4851680232142 134.33535256784594) rotate(0 95.88255199999998 15.874843499999997)"><path d="M0 0 L191.77 0 L191.77 31.75 L0 31.75" stroke="none" stroke-width="0" fill="#e9ecef"></path><path d="M0 0 C45.41 0, 90.82 0, 191.77 0 M0 0 C58.31 0, 116.63 0, 191.77 0 M191.77 0 C191.77 9.53, 191.77 19.06, 191.77 31.75 M191.77 0 C191.77 10.25, 191.77 20.5, 191.77 31.75 M191.77 31.75 C123.29 31.75, 54.81 31.75, 0 31.75 M191.77 31.75 C126.77 31.75, 61.77 31.75, 0 31.75 M0 31.75 C0 19.62, 0 7.48, 0 0 M0 31.75 C0 23.28, 0 14.81, 0 0" stroke="#1e1e1e" stroke-width="2" fill="none"></path></g><g transform="translate(332.7917388830774 140.21019606784594) rotate(0 6.575981140136719 10)"><text x="6.575981140136719" y="0" font-family="Virgil, Segoe UI Emoji" font-size="16px" fill="#1e1e1e" text-anchor="middle" style="white-space: pre;" direction="ltr" dominant-baseline="text-before-edge">...</text></g><g stroke-linecap="round" transform="translate(243.4851680232142 166.08503956784594) rotate(0 95.88255199999998 15.928006766556337)"><path d="M0 0 L191.77 0 L191.77 31.86 L0 31.86" stroke="none" stroke-width="0" fill="#ffffff"></path><path d="M0 0 C43.08 0, 86.16 0, 191.77 0 M0 0 C57.06 0, 114.12 0, 191.77 0 M191.77 0 C191.77 8.56, 191.77 17.13, 191.77 31.86 M191.77 0 C191.77 11.45, 191.77 22.9, 191.77 31.86 M191.77 31.86 C139.94 31.86, 88.12 31.86, 0 31.86 M191.77 31.86 C127.68 31.86, 63.6 31.86, 0 31.86 M0 31.86 C0 25.39, 0 18.93, 0 0 M0 31.86 C0 22.42, 0 12.99, 0 0" stroke="#1e1e1e" stroke-width="2" fill="none"></path></g><g transform="translate(287.77397002321413 172.8130463344023) rotate(0 51.59375 9.199999999999989)"><text x="51.59375" y="0" font-family="Helvetica, Segoe UI Emoji" font-size="16px" fill="#1e1e1e" text-anchor="middle" style="white-space: pre;" direction="ltr" dominant-baseline="text-before-edge">Version* next_</text></g><g stroke-linecap="round" transform="translate(243.4851670232142 197.94105356784596) rotate(0 95.88255199999998 15.956503748114272)"><path d="M0 0 L191.77 0 L191.77 31.91 L0 31.91" stroke="none" stroke-width="0" fill="#ffffff"></path><path d="M0 0 C59.54 0, 119.07 0, 191.77 0 M0 0 C69.71 0, 139.42 0, 191.77 0 M191.77 0 C191.77 10.88, 191.77 21.76, 191.77 31.91 M191.77 0 C191.77 8.08, 191.77 16.15, 191.77 31.91 M191.77 31.91 C149.26 31.91, 106.75 31.91, 0 31.91 M191.77 31.91 C139.43 31.91, 87.1 31.91, 0 31.91 M0 31.91 C0 20.31, 0 8.71, 0 0 M0 31.91 C0 24.89, 0 17.88, 0 0" stroke="#1e1e1e" stroke-width="2" fill="none"></path></g><g transform="translate(287.33256277321414 204.69755731596027) rotate(0 52.03515625 9.199999999999989)"><text x="52.03515625" y="0" font-family="Helvetica, Segoe UI Emoji" font-size="16px" fill="#1e1e1e" text-anchor="middle" style="white-space: pre;" direction="ltr" dominant-baseline="text-before-edge">Version* prev_</text></g><g stroke-linecap="round" transform="translate(243.4851680232142 229.85406056784595) rotate(0 95.88255199999998 16.112455883039644)"><path d="M0 0 L191.77 0 L191.77 32.22 L0 32.22" stroke="none" stroke-width="0" fill="#e9ecef"></path><path d="M0 0 C38.6 0, 77.21 0, 191.77 0 M0 0 C68.28 0, 136.56 0, 191.77 0 M191.77 0 C191.77 10.48, 191.77 20.96, 191.77 32.22 M191.77 0 C191.77 9.96, 191.77 19.93, 191.77 32.22 M191.77 32.22 C152.59 32.22, 113.41 32.22, 0 32.22 M191.77 32.22 C152.1 32.22, 112.44 32.22, 0 32.22 M0 32.22 C0 19.82, 0 7.41, 0 0 M0 32.22 C0 19.72, 0 7.22, 0 0" stroke="#1e1e1e" stroke-width="2" fill="none"></path></g><g transform="translate(332.7917388830774 235.96651645088562) rotate(0 6.575981140136719 10)"><text x="6.575981140136719" y="0" font-family="Virgil, Segoe UI Emoji" font-size="16px" fill="#1e1e1e" text-anchor="middle" style="white-space: pre;" direction="ltr" dominant-baseline="text-before-edge">...</text></g><g transform="translate(295.4536580635839 113.80313290543918) rotate(0 62.41596221923828 10)"><text x="62.41596221923828" y="0" font-family="Virgil, Segoe UI Emoji" font-size="16px" fill="#1e1e1e" text-anchor="middle" style="white-space: pre;" direction="ltr" dominant-baseline="text-before-edge">Version* current</text></g><g stroke-linecap="round"><g transform="translate(1082.114412096597 151.02804577779287) rotate(0 -421.175230517509 -70.51402288889643)"><path d="M66.81 0 C76.11 -0.05, 85.41 -0.09, 99.02 -0.16 M66.81 0 C78.38 -0.06, 89.95 -0.11, 99.02 -0.16 M99.02 -0.16 C99.12 -42.26, 99.22 -84.36, 99.35 -141.03 M99.02 -0.16 C99.13 -47.95, 99.24 -95.74, 99.35 -141.03 M99.35 -141.03 C-143.68 -140.86, -386.7 -140.7, -941.26 -140.33 M99.35 -141.03 C-183.38 -140.84, -466.11 -140.65, -941.26 -140.33 M-941.26 -140.33 C-941.37 -105.99, -941.48 -71.64, -941.7 -1.34 M-941.26 -140.33 C-941.42 -89.89, -941.58 -39.46, -941.7 -1.34 M-941.7 -1.34 C-911.98 -1.27, -882.26 -1.2, -838.22 -1.1 M-941.7 -1.34 C-904.59 -1.25, -867.47 -1.17, -838.22 -1.1" stroke="#1e1e1e" stroke-width="2" fill="none"></path></g><g transform="translate(1082.114412096597 151.02804577779287) rotate(0 -421.175230517509 -70.51402288889643)"><path d="M-866.44 9.1 C-858.3 6.15, -850.15 3.21, -838.22 -1.1 M-866.44 9.1 C-856.3 5.43, -846.17 1.77, -838.22 -1.1" stroke="#1e1e1e" stroke-width="2" fill="none"></path></g><g transform="translate(1082.114412096597 151.02804577779287) rotate(0 -421.175230517509 -70.51402288889643)"><path d="M-866.39 -11.42 C-858.26 -8.44, -850.13 -5.46, -838.22 -1.1 M-866.39 -11.42 C-856.27 -7.72, -846.16 -4.01, -838.22 -1.1" stroke="#1e1e1e" stroke-width="2" fill="none"></path></g></g><mask></mask><g stroke-linecap="round"><g transform="translate(417.8033682193202 217.63022022387955) rotate(0 405.09430098504436 -90.73120414885389)"><path d="M0 0 C17.42 0.02, 34.83 0.04, 70.11 0.07 M0 0 C24.52 0.03, 49.05 0.05, 70.11 0.07 M70.11 0.07 C70.08 -61.68, 70.05 -123.44, 70.02 -181.53 M70.11 0.07 C70.08 -63.15, 70.05 -126.37, 70.02 -181.53 M70.02 -181.53 C328.56 -181.53, 587.1 -181.53, 810.02 -181.53 M70.02 -181.53 C344.05 -181.53, 618.09 -181.53, 810.02 -181.53 M810.02 -181.53 C810.06 -163.75, 810.09 -145.97, 810.19 -96.79 M810.02 -181.53 C810.09 -149.4, 810.15 -117.26, 810.19 -96.79 M810.19 -96.79 C791.7 -96.78, 773.21 -96.78, 731.48 -96.76 M810.19 -96.79 C790.54 -96.78, 770.89 -96.78, 731.48 -96.76" stroke="#1e1e1e" stroke-width="2" fill="none"></path></g><g transform="translate(417.8033682193202 217.63022022387955) rotate(0 405.09430098504436 -90.73120414885389)"><path d="M759.66 -107.03 C752.66 -104.48, 745.66 -101.93, 731.48 -96.76 M759.66 -107.03 C749.8 -103.44, 739.94 -99.85, 731.48 -96.76" stroke="#1e1e1e" stroke-width="2" fill="none"></path></g><g transform="translate(417.8033682193202 217.63022022387955) rotate(0 405.09430098504436 -90.73120414885389)"><path d="M759.67 -86.51 C752.67 -89.06, 745.66 -91.6, 731.48 -96.76 M759.67 -86.51 C749.81 -90.1, 739.94 -93.68, 731.48 -96.76" stroke="#1e1e1e" stroke-width="2" fill="none"></path></g></g><mask></mask><g stroke-linecap="round"><g transform="translate(413.39069151938537 182.69141798755012) rotate(0 76.49809054316108 -34.39039123944468)"><path d="M0 0 C20 -0.2, 40 -0.39, 67.38 -0.66 M0 0 C25.8 -0.25, 51.6 -0.51, 67.38 -0.66 M67.38 -0.66 C67.45 -26.78, 67.53 -52.89, 67.57 -67.93 M67.38 -0.66 C67.44 -21.59, 67.5 -42.51, 67.57 -67.93 M67.57 -67.93 C87.56 -68.13, 107.55 -68.33, 153 -68.78 M67.57 -67.93 C90.52 -68.16, 113.47 -68.39, 153 -68.78" stroke="#1e1e1e" stroke-width="2" fill="none"></path></g><g transform="translate(413.39069151938537 182.69141798755012) rotate(0 76.49809054316108 -34.39039123944468)"><path d="M124.91 -58.24 C133.25 -61.37, 141.58 -64.5, 153 -68.78 M124.91 -58.24 C135.66 -62.28, 146.42 -66.31, 153 -68.78" stroke="#1e1e1e" stroke-width="2" fill="none"></path></g><g transform="translate(413.39069151938537 182.69141798755012) rotate(0 76.49809054316108 -34.39039123944468)"><path d="M124.7 -78.76 C133.1 -75.8, 141.5 -72.84, 153 -68.78 M124.7 -78.76 C135.54 -74.94, 146.37 -71.12, 153 -68.78" stroke="#1e1e1e" stroke-width="2" fill="none"></path></g></g><mask></mask><g stroke-linecap="round"><g transform="translate(557.1408280443128 185.63033005908133) rotate(0 -73.75054369954609 -19.545290239519602)"><path d="M0 0 C-18.32 0.19, -36.64 0.38, -51.62 0.54 M0 0 C-19.94 0.21, -39.88 0.42, -51.62 0.54 M-51.62 0.54 C-51.85 -12.25, -52.07 -25.05, -52.32 -39.63 M-51.62 0.54 C-51.89 -14.64, -52.15 -29.82, -52.32 -39.63 M-52.32 -39.63 C-78.78 -39.55, -105.24 -39.47, -147.5 -39.34 M-52.32 -39.63 C-71.6 -39.57, -90.87 -39.51, -147.5 -39.34" stroke="#1e1e1e" stroke-width="2" fill="none"></path></g><g transform="translate(557.1408280443128 185.63033005908133) rotate(0 -73.75054369954609 -19.545290239519602)"><path d="M-119.34 -49.69 C-129.34 -46.02, -139.33 -42.35, -147.5 -39.34 M-119.34 -49.69 C-130.22 -45.69, -141.1 -41.7, -147.5 -39.34" stroke="#1e1e1e" stroke-width="2" fill="none"></path></g><g transform="translate(557.1408280443128 185.63033005908133) rotate(0 -73.75054369954609 -19.545290239519602)"><path d="M-119.28 -29.17 C-129.3 -32.78, -139.31 -36.39, -147.5 -39.34 M-119.28 -29.17 C-130.18 -33.1, -141.08 -37.03, -147.5 -39.34" stroke="#1e1e1e" stroke-width="2" fill="none"></path></g></g><mask></mask><g stroke-linecap="round" transform="translate(552.5239350232142 493.05043179076813) rotate(0 31.593369999999993 16.88884335094008)"><path d="M0 0 L63.19 0 L63.19 33.78 L0 33.78" stroke="none" stroke-width="0" fill="#ffffff"></path><path d="M0 0 C24.83 0, 49.66 0, 63.19 0 M0 0 C15.43 0, 30.85 0, 63.19 0 M63.19 0 C63.19 9.45, 63.19 18.9, 63.19 33.78 M63.19 0 C63.19 13.07, 63.19 26.15, 63.19 33.78 M63.19 33.78 C47.07 33.78, 30.96 33.78, 0 33.78 M63.19 33.78 C44.06 33.78, 24.93 33.78, 0 33.78 M0 33.78 C0 25.43, 0 17.08, 0 0 M0 33.78 C0 22.28, 0 10.79, 0 0" stroke="#1e1e1e" stroke-width="2" fill="none"></path></g><g transform="translate(571.2053253479213 499.9392751417082) rotate(0 12.911979675292969 10)"><text x="12.911979675292969" y="0" font-family="Virgil, Segoe UI Emoji" font-size="16px" fill="#1e1e1e" text-anchor="middle" style="white-space: pre;" direction="ltr" dominant-baseline="text-before-edge">.ldb</text></g><g stroke-linecap="round" transform="translate(767.436701998445 493.1652869548723) rotate(0 31.593369999999993 16.88884335094008)"><path d="M0 0 L63.19 0 L63.19 33.78 L0 33.78" stroke="none" stroke-width="0" fill="#ffffff"></path><path d="M0 0 C24.42 0, 48.84 0, 63.19 0 M0 0 C17.72 0, 35.45 0, 63.19 0 M63.19 0 C63.19 8.12, 63.19 16.23, 63.19 33.78 M63.19 0 C63.19 13.49, 63.19 26.99, 63.19 33.78 M63.19 33.78 C49.57 33.78, 35.96 33.78, 0 33.78 M63.19 33.78 C45.95 33.78, 28.72 33.78, 0 33.78 M0 33.78 C0 24.96, 0 16.15, 0 0 M0 33.78 C0 25.24, 0 16.7, 0 0" stroke="#1e1e1e" stroke-width="2" fill="none"></path></g><g transform="translate(786.118092323152 500.05413030581235) rotate(0 12.911979675292969 10)"><text x="12.911979675292969" y="0" font-family="Virgil, Segoe UI Emoji" font-size="16px" fill="#1e1e1e" text-anchor="middle" style="white-space: pre;" direction="ltr" dominant-baseline="text-before-edge">.ldb</text></g><g stroke-linecap="round" transform="translate(552.5239355918101 583.5534424729494) rotate(0 31.593369999999993 16.88884335094008)"><path d="M0 0 L63.19 0 L63.19 33.78 L0 33.78" stroke="none" stroke-width="0" fill="#ffffff"></path><path d="M0 0 C24.84 0, 49.69 0, 63.19 0 M0 0 C16.85 0, 33.71 0, 63.19 0 M63.19 0 C63.19 13.12, 63.19 26.24, 63.19 33.78 M63.19 0 C63.19 7.64, 63.19 15.28, 63.19 33.78 M63.19 33.78 C49.57 33.78, 35.95 33.78, 0 33.78 M63.19 33.78 C42.33 33.78, 21.47 33.78, 0 33.78 M0 33.78 C0 22.43, 0 11.08, 0 0 M0 33.78 C0 21.43, 0 9.09, 0 0" stroke="#1e1e1e" stroke-width="2" fill="none"></path></g><g transform="translate(571.2053259165172 590.4422858238895) rotate(0 12.911979675292969 10)"><text x="12.911979675292969" y="0" font-family="Virgil, Segoe UI Emoji" font-size="16px" fill="#1e1e1e" text-anchor="middle" style="white-space: pre;" direction="ltr" dominant-baseline="text-before-edge">.ldb</text></g><g stroke-linecap="round" transform="translate(657.7638930776756 583.5534426782646) rotate(0 31.593369999999993 16.88884335094008)"><path d="M0 0 L63.19 0 L63.19 33.78 L0 33.78" stroke="none" stroke-width="0" fill="#ffffff"></path><path d="M0 0 C13 0, 26.01 0, 63.19 0 M0 0 C24.81 0, 49.61 0, 63.19 0 M63.19 0 C63.19 7.09, 63.19 14.19, 63.19 33.78 M63.19 0 C63.19 9.38, 63.19 18.77, 63.19 33.78 M63.19 33.78 C40.63 33.78, 18.08 33.78, 0 33.78 M63.19 33.78 C41.18 33.78, 19.17 33.78, 0 33.78 M0 33.78 C0 20.94, 0 8.11, 0 0 M0 33.78 C0 21.31, 0 8.85, 0 0" stroke="#1e1e1e" stroke-width="2" fill="none"></path></g><g transform="translate(676.4452834023826 590.4422860292046) rotate(0 12.911979675292969 10)"><text x="12.911979675292969" y="0" font-family="Virgil, Segoe UI Emoji" font-size="16px" fill="#1e1e1e" text-anchor="middle" style="white-space: pre;" direction="ltr" dominant-baseline="text-before-edge">.ldb</text></g><g stroke-linecap="round" transform="translate(772.3707376222409 583.5534422298674) rotate(0 31.593369999999993 16.88884335094008)"><path d="M0 0 L63.19 0 L63.19 33.78 L0 33.78" stroke="none" stroke-width="0" fill="#ffffff"></path><path d="M0 0 C23.32 0, 46.64 0, 63.19 0 M0 0 C20.89 0, 41.79 0, 63.19 0 M63.19 0 C63.19 10.79, 63.19 21.58, 63.19 33.78 M63.19 0 C63.19 13.12, 63.19 26.23, 63.19 33.78 M63.19 33.78 C48.39 33.78, 33.59 33.78, 0 33.78 M63.19 33.78 C39.86 33.78, 16.53 33.78, 0 33.78 M0 33.78 C0 22.17, 0 10.56, 0 0 M0 33.78 C0 22.43, 0 11.08, 0 0" stroke="#1e1e1e" stroke-width="2" fill="none"></path></g><g transform="translate(791.052127946948 590.4422855808075) rotate(0 12.911979675292969 10)"><text x="12.911979675292969" y="0" font-family="Virgil, Segoe UI Emoji" font-size="16px" fill="#1e1e1e" text-anchor="middle" style="white-space: pre;" direction="ltr" dominant-baseline="text-before-edge">.ldb</text></g><g stroke-linecap="round" transform="translate(552.5239357416666 674.0564531231839) rotate(0 31.593369999999993 16.88884335094008)"><path d="M0 0 L63.19 0 L63.19 33.78 L0 33.78" stroke="none" stroke-width="0" fill="#ffffff"></path><path d="M0 0 C12.99 0, 25.98 0, 63.19 0 M0 0 C21.85 0, 43.7 0, 63.19 0 M63.19 0 C63.19 12.22, 63.19 24.45, 63.19 33.78 M63.19 0 C63.19 10.42, 63.19 20.85, 63.19 33.78 M63.19 33.78 C46.1 33.78, 29 33.78, 0 33.78 M63.19 33.78 C43 33.78, 22.82 33.78, 0 33.78 M0 33.78 C0 22.39, 0 10.99, 0 0 M0 33.78 C0 21.57, 0 9.36, 0 0" stroke="#1e1e1e" stroke-width="2" fill="none"></path></g><g transform="translate(571.2053260663737 680.945296474124) rotate(0 12.911979675292969 10)"><text x="12.911979675292969" y="0" font-family="Virgil, Segoe UI Emoji" font-size="16px" fill="#1e1e1e" text-anchor="middle" style="white-space: pre;" direction="ltr" dominant-baseline="text-before-edge">.ldb</text></g><g stroke-linecap="round" transform="translate(657.7638926942005 674.0564524814121) rotate(0 31.593369999999993 16.88884335094008)"><path d="M0 0 L63.19 0 L63.19 33.78 L0 33.78" stroke="none" stroke-width="0" fill="#ffffff"></path><path d="M0 0 C20.88 0, 41.75 0, 63.19 0 M0 0 C19.76 0, 39.53 0, 63.19 0 M63.19 0 C63.19 7.3, 63.19 14.61, 63.19 33.78 M63.19 0 C63.19 10.68, 63.19 21.35, 63.19 33.78 M63.19 33.78 C38.22 33.78, 13.25 33.78, 0 33.78 M63.19 33.78 C46.4 33.78, 29.61 33.78, 0 33.78 M0 33.78 C0 20.63, 0 7.49, 0 0 M0 33.78 C0 26.44, 0 19.11, 0 0" stroke="#1e1e1e" stroke-width="2" fill="none"></path></g><g transform="translate(676.4452830189076 680.9452958323521) rotate(0 12.911979675292969 10)"><text x="12.911979675292969" y="0" font-family="Virgil, Segoe UI Emoji" font-size="16px" fill="#1e1e1e" text-anchor="middle" style="white-space: pre;" direction="ltr" dominant-baseline="text-before-edge">.ldb</text></g><g stroke-linecap="round" transform="translate(772.370738082198 674.0564526522485) rotate(0 31.593369999999993 16.88884335094008)"><path d="M0 0 L63.19 0 L63.19 33.78 L0 33.78" stroke="none" stroke-width="0" fill="#ffffff"></path><path d="M0 0 C13.88 0, 27.77 0, 63.19 0 M0 0 C22.38 0, 44.75 0, 63.19 0 M63.19 0 C63.19 8.8, 63.19 17.59, 63.19 33.78 M63.19 0 C63.19 11.4, 63.19 22.81, 63.19 33.78 M63.19 33.78 C41.79 33.78, 20.39 33.78, 0 33.78 M63.19 33.78 C40.8 33.78, 18.4 33.78, 0 33.78 M0 33.78 C0 22.84, 0 11.9, 0 0 M0 33.78 C0 22.64, 0 11.51, 0 0" stroke="#1e1e1e" stroke-width="2" fill="none"></path></g><g transform="translate(791.0521284069051 680.9452960031886) rotate(0 12.911979675292969 10)"><text x="12.911979675292969" y="0" font-family="Virgil, Segoe UI Emoji" font-size="16px" fill="#1e1e1e" text-anchor="middle" style="white-space: pre;" direction="ltr" dominant-baseline="text-before-edge">.ldb</text></g><g stroke-linecap="round" transform="translate(879.7085816908753 674.0564535134682) rotate(0 31.593369999999993 16.88884335094008)"><path d="M0 0 L63.19 0 L63.19 33.78 L0 33.78" stroke="none" stroke-width="0" fill="#ffffff"></path><path d="M0 0 C21.23 0, 42.45 0, 63.19 0 M0 0 C16.88 0, 33.76 0, 63.19 0 M63.19 0 C63.19 8.59, 63.19 17.18, 63.19 33.78 M63.19 0 C63.19 7.1, 63.19 14.21, 63.19 33.78 M63.19 33.78 C41.08 33.78, 18.97 33.78, 0 33.78 M63.19 33.78 C49.69 33.78, 36.19 33.78, 0 33.78 M0 33.78 C0 25.56, 0 17.33, 0 0 M0 33.78 C0 22.55, 0 11.33, 0 0" stroke="#1e1e1e" stroke-width="2" fill="none"></path></g><g transform="translate(898.3899720155824 680.9452968644083) rotate(0 12.911979675292969 10)"><text x="12.911979675292969" y="0" font-family="Virgil, Segoe UI Emoji" font-size="16px" fill="#1e1e1e" text-anchor="middle" style="white-space: pre;" direction="ltr" dominant-baseline="text-before-edge">.ldb</text></g><g stroke-linecap="round" transform="translate(999.8864639185927 674.0564534280502) rotate(0 31.593369999999993 16.88884335094008)"><path d="M0 0 L63.19 0 L63.19 33.78 L0 33.78" stroke="none" stroke-width="0" fill="#ffffff"></path><path d="M0 0 C22.14 0, 44.27 0, 63.19 0 M0 0 C24.3 0, 48.59 0, 63.19 0 M63.19 0 C63.19 12.2, 63.19 24.4, 63.19 33.78 M63.19 0 C63.19 11.57, 63.19 23.14, 63.19 33.78 M63.19 33.78 C44.01 33.78, 24.83 33.78, 0 33.78 M63.19 33.78 C40.07 33.78, 16.95 33.78, 0 33.78 M0 33.78 C0 26.35, 0 18.93, 0 0 M0 33.78 C0 24.77, 0 15.76, 0 0" stroke="#1e1e1e" stroke-width="2" fill="none"></path></g><g transform="translate(1018.5678542432996 680.9452967789903) rotate(0 12.911979675292969 10)"><text x="12.911979675292969" y="0" font-family="Virgil, Segoe UI Emoji" font-size="16px" fill="#1e1e1e" text-anchor="middle" style="white-space: pre;" direction="ltr" dominant-baseline="text-before-edge">.ldb</text></g><g stroke-linecap="round" transform="translate(552.5239360232142 769.5966602883968) rotate(0 255.27463400000005 20.53923185224363)"><path d="M0 0 L510.55 0 L510.55 41.08 L0 41.08" stroke="none" stroke-width="0" fill="#ffffff"></path><path d="M0 0 C179.87 0, 359.75 0, 510.55 0 M0 0 C199.07 0, 398.15 0, 510.55 0 M510.55 0 C510.55 15.61, 510.55 31.23, 510.55 41.08 M510.55 0 C510.55 10.39, 510.55 20.79, 510.55 41.08 M510.55 41.08 C380.1 41.08, 249.64 41.08, 0 41.08 M510.55 41.08 C315.26 41.08, 119.97 41.08, 0 41.08 M0 41.08 C0 28.28, 0 15.48, 0 0 M0 41.08 C0 30.81, 0 20.54, 0 0" stroke="#1e1e1e" stroke-width="2" fill="none"></path></g><g transform="translate(801.2225888830775 780.1358921406405) rotate(0 6.575981140136719 10)"><text x="6.575981140136719" y="0" font-family="Virgil, Segoe UI Emoji" font-size="16px" fill="#1e1e1e" text-anchor="middle" style="white-space: pre;" direction="ltr" dominant-baseline="text-before-edge">...</text></g><g stroke-linecap="round"><g transform="translate(566.8393422864417 387.4150605517258) rotate(0 7.309170070117489 51.59913276984173)"><path d="M0 0 C2.99 21.1, 5.98 42.19, 14.62 103.2 M0 0 C4.73 33.37, 9.45 66.75, 14.62 103.2" stroke="#e03131" stroke-width="1" fill="none"></path></g><g transform="translate(566.8393422864417 387.4150605517258) rotate(0 7.309170070117489 51.59913276984173)"><path d="M0.51 76.73 C3.39 82.14, 6.28 87.55, 14.62 103.2 M0.51 76.73 C5.07 85.29, 9.63 93.85, 14.62 103.2" stroke="#e03131" stroke-width="1" fill="none"></path></g><g transform="translate(566.8393422864417 387.4150605517258) rotate(0 7.309170070117489 51.59913276984173)"><path d="M20.82 73.85 C19.56 79.85, 18.29 85.85, 14.62 103.2 M20.82 73.85 C18.82 83.34, 16.81 92.83, 14.62 103.2" stroke="#e03131" stroke-width="1" fill="none"></path></g></g><mask></mask><g stroke-linecap="round"><g transform="translate(599.4378979304729 386.0992956495403) rotate(0 95.98361821713024 52.4312496764922)"><path d="M0 0 C75.41 41.19, 150.81 82.38, 191.97 104.86 M0 0 C68.33 37.32, 136.66 74.65, 191.97 104.86" stroke="#e03131" stroke-width="1" fill="none"></path></g><g transform="translate(599.4378979304729 386.0992956495403) rotate(0 95.98361821713024 52.4312496764922)"><path d="M162.31 100.35 C173.96 102.12, 185.61 103.9, 191.97 104.86 M162.31 100.35 C172.86 101.96, 183.42 103.56, 191.97 104.86" stroke="#e03131" stroke-width="1" fill="none"></path></g><g transform="translate(599.4378979304729 386.0992956495403) rotate(0 95.98361821713024 52.4312496764922)"><path d="M172.15 82.34 C179.93 91.19, 187.72 100.03, 191.97 104.86 M172.15 82.34 C179.2 90.36, 186.26 98.37, 191.97 104.86" stroke="#e03131" stroke-width="1" fill="none"></path></g></g><mask></mask><g stroke-linecap="round"><g transform="translate(631.8806774018765 386.45374434226744) rotate(0 -23.543977501360757 99.67795815569059)"><path d="M0 0 C-10.4 44.03, -20.8 88.06, -47.09 199.36 M0 0 C-14.09 59.65, -28.18 119.3, -47.09 199.36" stroke="#e03131" stroke-width="1" fill="none"></path></g><g transform="translate(631.8806774018765 386.45374434226744) rotate(0 -23.543977501360757 99.67795815569059)"><path d="M-50.59 169.56 C-49.82 176.14, -49.05 182.72, -47.09 199.36 M-50.59 169.56 C-49.54 178.48, -48.5 187.39, -47.09 199.36" stroke="#e03131" stroke-width="1" fill="none"></path></g><g transform="translate(631.8806774018765 386.45374434226744) rotate(0 -23.543977501360757 99.67795815569059)"><path d="M-30.62 174.28 C-34.26 179.82, -37.9 185.36, -47.09 199.36 M-30.62 174.28 C-35.55 181.78, -40.48 189.29, -47.09 199.36" stroke="#e03131" stroke-width="1" fill="none"></path></g></g><mask></mask><g stroke-linecap="round"><g transform="translate(764.6700469866831 384.8640964955863) rotate(0 -39.03366228657899 142.0788767296994)"><path d="M0 0 C-30.79 112.06, -61.57 224.13, -78.07 284.16 M0 0 C-21.16 77, -42.31 154.01, -78.07 284.16" stroke="#e03131" stroke-width="1" fill="none"></path></g><g transform="translate(764.6700469866831 384.8640964955863) rotate(0 -39.03366228657899 142.0788767296994)"><path d="M-80.49 254.26 C-79.54 266.05, -78.58 277.84, -78.07 284.16 M-80.49 254.26 C-79.84 262.36, -79.18 270.46, -78.07 284.16" stroke="#e03131" stroke-width="1" fill="none"></path></g><g transform="translate(764.6700469866831 384.8640964955863) rotate(0 -39.03366228657899 142.0788767296994)"><path d="M-60.71 259.69 C-67.55 269.34, -74.4 278.99, -78.07 284.16 M-60.71 259.69 C-65.41 266.32, -70.12 272.95, -78.07 284.16" stroke="#e03131" stroke-width="1" fill="none"></path></g></g><mask></mask><g stroke-linecap="round"><g transform="translate(860.2530276761667 387.3613486488913) rotate(0 86.20489259296107 141.0491000642844)"><path d="M0 0 C68.15 111.51, 136.31 223.03, 172.41 282.1 M0 0 C35.2 57.59, 70.4 115.18, 172.41 282.1" stroke="#e03131" stroke-width="1" fill="none"></path></g><g transform="translate(860.2530276761667 387.3613486488913) rotate(0 86.20489259296107 141.0491000642844)"><path d="M148.95 263.39 C158.23 270.79, 167.5 278.18, 172.41 282.1 M148.95 263.39 C153.74 267.21, 158.53 271.03, 172.41 282.1" stroke="#e03131" stroke-width="1" fill="none"></path></g><g transform="translate(860.2530276761667 387.3613486488913) rotate(0 86.20489259296107 141.0491000642844)"><path d="M166.46 252.69 C168.81 264.32, 171.16 275.94, 172.41 282.1 M166.46 252.69 C167.68 258.7, 168.89 264.7, 172.41 282.1" stroke="#e03131" stroke-width="1" fill="none"></path></g></g><mask></mask><g stroke-linecap="round"><g transform="translate(826.8381827345239 386.58800604657745) rotate(0 41.76319413361932 141.34043775753236)"><path d="M0 0 C18.23 61.68, 36.45 123.37, 83.53 282.68 M0 0 C31.5 106.61, 63 213.22, 83.53 282.68" stroke="#e03131" stroke-width="1" fill="none"></path></g><g transform="translate(826.8381827345239 386.58800604657745) rotate(0 41.76319413361932 141.34043775753236)"><path d="M65.7 258.55 C69.59 263.82, 73.48 269.08, 83.53 282.68 M65.7 258.55 C72.42 267.65, 79.15 276.75, 83.53 282.68" stroke="#e03131" stroke-width="1" fill="none"></path></g><g transform="translate(826.8381827345239 386.58800604657745) rotate(0 41.76319413361932 141.34043775753236)"><path d="M85.38 252.74 C84.97 259.27, 84.57 265.81, 83.53 282.68 M85.38 252.74 C84.68 264.03, 83.98 275.32, 83.53 282.68" stroke="#e03131" stroke-width="1" fill="none"></path></g></g><mask></mask><g stroke-linecap="round" transform="translate(655.2125274961638 490.613326734717) rotate(0 31.593369999999993 16.88884335094008)"><path d="M0 0 L63.19 0 L63.19 33.78 L0 33.78" stroke="none" stroke-width="0" fill="#ffffff"></path><path d="M0 0 C24.71 0, 49.42 0, 63.19 0 M0 0 C17.51 0, 35.02 0, 63.19 0 M63.19 0 C63.19 11.83, 63.19 23.65, 63.19 33.78 M63.19 0 C63.19 10.46, 63.19 20.93, 63.19 33.78 M63.19 33.78 C44.99 33.78, 26.79 33.78, 0 33.78 M63.19 33.78 C47.9 33.78, 32.6 33.78, 0 33.78 M0 33.78 C0 21.36, 0 8.93, 0 0 M0 33.78 C0 24.97, 0 16.17, 0 0" stroke="#1e1e1e" stroke-width="2" fill="none"></path></g><g transform="translate(673.8939178208708 497.5021700856571) rotate(0 12.911979675292969 10)"><text x="12.911979675292969" y="0" font-family="Virgil, Segoe UI Emoji" font-size="16px" fill="#1e1e1e" text-anchor="middle" style="white-space: pre;" direction="ltr" dominant-baseline="text-before-edge">.ldb</text></g><g stroke-linecap="round"><g transform="translate(665.2686869524363 386.8619015780297) rotate(0 12.13717411723195 97.12162912243832)"><path d="M0 0 C9.33 74.68, 18.66 149.36, 24.27 194.24 M0 0 C9.48 75.88, 18.97 151.76, 24.27 194.24" stroke="#e03131" stroke-width="1" fill="none"></path></g><g transform="translate(665.2686869524363 386.8619015780297) rotate(0 12.13717411723195 97.12162912243832)"><path d="M10.6 167.54 C15.86 177.81, 21.11 188.07, 24.27 194.24 M10.6 167.54 C15.94 177.97, 21.28 188.4, 24.27 194.24" stroke="#e03131" stroke-width="1" fill="none"></path></g><g transform="translate(665.2686869524363 386.8619015780297) rotate(0 12.13717411723195 97.12162912243832)"><path d="M30.96 165 C28.39 176.24, 25.82 187.48, 24.27 194.24 M30.96 165 C28.35 176.42, 25.74 187.85, 24.27 194.24" stroke="#e03131" stroke-width="1" fill="none"></path></g></g><mask></mask><g stroke-linecap="round"><g transform="translate(730.1220235326526 387.2270835847819) rotate(0 -74.90949636008685 144.6070109805757)"><path d="M0 0 C-59.87 115.58, -119.75 231.16, -149.82 289.21 M0 0 C-45.43 87.69, -90.85 175.39, -149.82 289.21" stroke="#e03131" stroke-width="1" fill="none"></path></g><g transform="translate(730.1220235326526 387.2270835847819) rotate(0 -74.90949636008685 144.6070109805757)"><path d="M-145.96 259.46 C-147.5 271.35, -149.04 283.24, -149.82 289.21 M-145.96 259.46 C-147.13 268.48, -148.3 277.5, -149.82 289.21" stroke="#e03131" stroke-width="1" fill="none"></path></g><g transform="translate(730.1220235326526 387.2270835847819) rotate(0 -74.90949636008685 144.6070109805757)"><path d="M-127.74 268.9 C-136.56 277.02, -145.39 285.14, -149.82 289.21 M-127.74 268.9 C-134.44 275.06, -141.13 281.22, -149.82 289.21" stroke="#e03131" stroke-width="1" fill="none"></path></g></g><mask></mask><g stroke-linecap="round"><g transform="translate(698.8822044141785 387.130419119292) rotate(0 50.61502158231076 94.67137037091942)"><path d="M0 0 C20.4 38.15, 40.8 76.31, 101.23 189.34 M0 0 C40.03 74.88, 80.07 149.76, 101.23 189.34" stroke="#e03131" stroke-width="1" fill="none"></path></g><g transform="translate(698.8822044141785 387.130419119292) rotate(0 50.61502158231076 94.67137037091942)"><path d="M78.89 169.32 C83.39 173.35, 87.89 177.39, 101.23 189.34 M78.89 169.32 C87.72 177.24, 96.56 185.16, 101.23 189.34" stroke="#e03131" stroke-width="1" fill="none"></path></g><g transform="translate(698.8822044141785 387.130419119292) rotate(0 50.61502158231076 94.67137037091942)"><path d="M96.99 159.64 C97.84 165.63, 98.7 171.61, 101.23 189.34 M96.99 159.64 C98.67 171.39, 100.34 183.13, 101.23 189.34" stroke="#e03131" stroke-width="1" fill="none"></path></g></g><mask></mask><g stroke-linecap="round"><g transform="translate(794.8894664764344 385.7878154662243) rotate(0 4.140605183221851 142.38095739025005)"><path d="M0 0 C2.27 77.89, 4.53 155.78, 8.28 284.76 M0 0 C2.02 69.45, 4.04 138.9, 8.28 284.76" stroke="#e03131" stroke-width="1" fill="none"></path></g><g transform="translate(794.8894664764344 385.7878154662243) rotate(0 4.140605183221851 142.38095739025005)"><path d="M-2.79 256.88 C0.23 264.51, 3.26 272.13, 8.28 284.76 M-2.79 256.88 C-0.09 263.68, 2.61 270.48, 8.28 284.76" stroke="#e03131" stroke-width="1" fill="none"></path></g><g transform="translate(794.8894664764344 385.7878154662243) rotate(0 4.140605183221851 142.38095739025005)"><path d="M17.72 256.28 C15.14 264.07, 12.56 271.86, 8.28 284.76 M17.72 256.28 C15.42 263.23, 13.11 270.18, 8.28 284.76" stroke="#e03131" stroke-width="1" fill="none"></path></g></g><mask></mask><g transform="translate(417.99116932538203 501.3910137431071) rotate(0 32.7978515625 11.5)"><text x="32.7978515625" y="0" font-family="Helvetica, Segoe UI Emoji" font-size="20px" fill="#1e1e1e" text-anchor="middle" style="white-space: pre;" direction="ltr" dominant-baseline="text-before-edge">Level-0</text></g><g transform="translate(417.991169382194 588.9422858295277) rotate(0 32.7978515625 11.5)"><text x="32.7978515625" y="0" font-family="Helvetica, Segoe UI Emoji" font-size="20px" fill="#1e1e1e" text-anchor="middle" style="white-space: pre;" direction="ltr" dominant-baseline="text-before-edge">Level-1</text></g><g transform="translate(417.9911697278762 679.4452957554356) rotate(0 32.7978515625 11.5)"><text x="32.7978515625" y="0" font-family="Helvetica, Segoe UI Emoji" font-size="20px" fill="#1e1e1e" text-anchor="middle" style="white-space: pre;" direction="ltr" dominant-baseline="text-before-edge">Level-2</text></g><g stroke-linecap="round" transform="translate(243.48516816804954 301.98059932665274) rotate(0 95.8825519275823 14.200000000000017)"><path d="M0 0 L191.77 0 L191.77 28.4 L0 28.4" stroke="none" stroke-width="0" fill="#ffffff"></path><path d="M0 0 C75.27 0, 150.53 0, 191.77 0 M0 0 C71.04 0, 142.08 0, 191.77 0 M191.77 0 C191.77 8, 191.77 16, 191.77 28.4 M191.77 0 C191.77 9.35, 191.77 18.69, 191.77 28.4 M191.77 28.4 C127.24 28.4, 62.72 28.4, 0 28.4 M191.77 28.4 C142.98 28.4, 94.19 28.4, 0 28.4 M0 28.4 C0 17.45, 0 6.5, 0 0 M0 28.4 C0 21.71, 0 15.02, 0 0" stroke="#1e1e1e" stroke-width="2" fill="none"></path></g><g transform="translate(253.52787634563182 306.98059932665274) rotate(0 85.83984375 9.200000000000017)"><text x="85.83984375" y="0" font-family="Helvetica, Segoe UI Emoji" font-size="16px" fill="#1e1e1e" text-anchor="middle" style="white-space: pre;" direction="ltr" dominant-baseline="text-before-edge">uint64_t prev_log_num_</text></g><g stroke-linecap="round" transform="translate(243.4851684783867 273.5805993687728) rotate(0 95.88255192758233 14.199999999999989)"><path d="M0 0 L191.77 0 L191.77 28.4 L0 28.4" stroke="none" stroke-width="0" fill="#ffffff"></path><path d="M0 0 C64.13 0, 128.25 0, 191.77 0 M0 0 C56.82 0, 113.63 0, 191.77 0 M191.77 0 C191.77 10.1, 191.77 20.2, 191.77 28.4 M191.77 0 C191.77 10.94, 191.77 21.88, 191.77 28.4 M191.77 28.4 C149.34 28.4, 106.92 28.4, 0 28.4 M191.77 28.4 C121.27 28.4, 50.78 28.4, 0 28.4 M0 28.4 C0 19.44, 0 10.48, 0 0 M0 28.4 C0 20.12, 0 11.84, 0 0" stroke="#1e1e1e" stroke-width="2" fill="none"></path></g><g transform="translate(273.539595405969 278.5805993687728) rotate(0 65.828125 9.199999999999989)"><text x="65.828125" y="0" font-family="Helvetica, Segoe UI Emoji" font-size="16px" fill="#1e1e1e" text-anchor="middle" style="white-space: pre;" direction="ltr" dominant-baseline="text-before-edge">uint64_t log_num_</text></g><g stroke-linecap="round"><g transform="translate(252.56811983627344 315.6515157785873) rotate(0 -71.24499753415182 18.867945315221732)"><path d="M0 0 C-42.17 11.17, -84.34 22.34, -142.49 37.74 M0 0 C-35.59 9.43, -71.18 18.85, -142.49 37.74" stroke="#e03131" stroke-width="2" fill="none"></path></g><g transform="translate(252.56811983627344 315.6515157785873) rotate(0 -71.24499753415182 18.867945315221732)"><path d="M-117.87 20.6 C-125.15 25.67, -132.44 30.74, -142.49 37.74 M-117.87 20.6 C-124.02 24.88, -130.17 29.16, -142.49 37.74" stroke="#e03131" stroke-width="2" fill="none"></path></g><g transform="translate(252.56811983627344 315.6515157785873) rotate(0 -71.24499753415182 18.867945315221732)"><path d="M-112.61 40.44 C-121.45 39.64, -130.3 38.84, -142.49 37.74 M-112.61 40.44 C-120.07 39.76, -127.54 39.09, -142.49 37.74" stroke="#e03131" stroke-width="2" fill="none"></path></g></g><mask></mask><g transform="translate(10 373.6301637665491) rotate(0 50.0390625 11.5)"><text x="50.0390625" y="0" font-family="Helvetica, Segoe UI Emoji" font-size="20px" fill="#e03131" text-anchor="middle" style="white-space: pre;" direction="ltr" dominant-baseline="text-before-edge">deprecated</text></g></svg>