<?xml version="1.0" encoding="us-ascii" standalone="no"?><svg xmlns="http://www.w3.org/2000/svg" xmlns:xlink="http://www.w3.org/1999/xlink" contentStyleType="text/css" height="707px" preserveAspectRatio="none" style="width:761px;height:707px;background:#FFFFFF;" version="1.1" viewBox="0 0 761 707" width="761px" zoomAndPan="magnify"><defs/><g><!--class Version::GetStats--><g id="elem_Version::GetStats"><rect codeLine="2" fill="#F1F1F1" height="80.9766" id="Version::GetStats" rx="2.5" ry="2.5" style="stroke:#181818;stroke-width:0.5;" width="184" x="42" y="7"/><ellipse cx="73.2" cy="23" fill="#F1F1F1" rx="11" ry="11" style="stroke:#181818;stroke-width:1.0;"/><path d="M72.9334,24.063 Q71.0823,23.3574 70.4266,22.5813 Q69.7708,21.8052 69.7708,20.4937 Q69.7708,18.8086 70.8499,17.8457 Q71.929,16.8828 73.8133,16.8828 Q74.6683,16.8828 75.5232,17.0779 Q76.3782,17.2729 77.2166,17.6548 L77.2166,20.0454 Q76.428,19.4893 75.6146,19.1987 Q74.8011,18.9082 74.0042,18.9082 Q73.116,18.9082 72.6429,19.2651 Q72.1697,19.6221 72.1697,20.2861 Q72.1697,20.8008 72.5142,21.137 Q72.8587,21.4731 73.9544,21.8799 L75.0086,22.2783 Q76.5027,22.8262 77.2083,23.731 Q77.9139,24.6357 77.9139,26.0137 Q77.9139,27.8896 76.8057,28.8152 Q75.6976,29.7407 73.4563,29.7407 Q72.535,29.7407 71.6094,29.5208 Q70.6839,29.3008 69.8206,28.8691 L69.8206,26.3374 Q70.8001,27.0347 71.7173,27.375 Q72.6346,27.7153 73.5311,27.7153 Q74.4358,27.7153 74.9339,27.3044 Q75.4319,26.8936 75.4319,26.1548 Q75.4319,25.5986 75.0999,25.1794 Q74.7679,24.7603 74.137,24.5195 Z " fill="#000000"/><text fill="#000000" font-family="sans-serif" font-size="14" lengthAdjust="spacing" textLength="116" x="90.8" y="28.291">Version::GetStats</text><line style="stroke:#181818;stroke-width:0.5;" x1="43" x2="225" y1="39" y2="39"/><ellipse cx="53" cy="52.7441" fill="none" rx="3" ry="3" style="stroke:#038048;stroke-width:1.0;"/><text fill="#000000" font-family="sans-serif" font-size="14" lengthAdjust="spacing" textLength="158" x="62" y="56.5352">FileMetaData* seek_file</text><ellipse cx="53" cy="69.2324" fill="none" rx="3" ry="3" style="stroke:#038048;stroke-width:1.0;"/><text fill="#000000" font-family="sans-serif" font-size="14" lengthAdjust="spacing" textLength="119" x="62" y="73.0234">int seek_file_level</text><line style="stroke:#181818;stroke-width:0.5;" x1="43" x2="225" y1="79.9766" y2="79.9766"/></g><!--class Version--><g id="elem_Version"><rect codeLine="8" fill="#F1F1F1" height="410.7422" id="Version" rx="2.5" ry="2.5" style="stroke:#181818;stroke-width:0.5;" width="624" x="7" y="164.98"/><ellipse cx="288.75" cy="180.98" fill="#ADD1B2" rx="11" ry="11" style="stroke:#181818;stroke-width:1.0;"/><path d="M291.2231,187.1231 Q290.6421,187.4219 290.0029,187.5713 Q289.3638,187.7207 288.6582,187.7207 Q286.1514,187.7207 284.8315,186.0689 Q283.5117,184.417 283.5117,181.2959 Q283.5117,178.1665 284.8315,176.5147 Q286.1514,174.8628 288.6582,174.8628 Q289.3638,174.8628 290.0112,175.0122 Q290.6587,175.1616 291.2231,175.4605 L291.2231,178.1831 Q290.5923,177.6021 289.9988,177.3323 Q289.4053,177.0625 288.7744,177.0625 Q287.4297,177.0625 286.7449,178.1292 Q286.0601,179.1958 286.0601,181.2959 Q286.0601,183.3877 286.7449,184.4544 Q287.4297,185.521 288.7744,185.521 Q289.4053,185.521 289.9988,185.2512 Q290.5923,184.9815 291.2231,184.4004 Z " fill="#000000"/><text fill="#000000" font-family="sans-serif" font-size="14" lengthAdjust="spacing" textLength="52" x="309.25" y="186.271">Version</text><line style="stroke:#181818;stroke-width:0.5;" x1="8" x2="630" y1="196.98" y2="196.98"/><rect fill="none" height="6" style="stroke:#C82930;stroke-width:1.0;" width="6" x="15" y="207.7241"/><text fill="#000000" font-family="sans-serif" font-size="14" lengthAdjust="spacing" textLength="118" x="27" y="214.5152">VersionSet* vset_</text><rect fill="none" height="6" style="stroke:#C82930;stroke-width:1.0;" width="6" x="15" y="224.2124"/><text fill="#000000" font-family="sans-serif" font-size="14" lengthAdjust="spacing" textLength="101" x="27" y="231.0034">Version* next_</text><rect fill="none" height="6" style="stroke:#C82930;stroke-width:1.0;" width="6" x="15" y="240.7007"/><text fill="#000000" font-family="sans-serif" font-size="14" lengthAdjust="spacing" textLength="100" x="27" y="247.4917">Version* prev_</text><rect fill="none" height="6" style="stroke:#C82930;stroke-width:1.0;" width="6" x="15" y="257.189"/><text fill="#000000" font-family="sans-serif" font-size="14" lengthAdjust="spacing" textLength="55" x="27" y="263.98">int refs_</text><rect fill="none" height="6" style="stroke:#C82930;stroke-width:1.0;" width="6" x="15" y="273.6773"/><text fill="#000000" font-family="sans-serif" font-size="14" lengthAdjust="spacing" textLength="369" x="27" y="280.4683">std::vector&lt;FileMetaData*&gt; files_[config::kNumLevels]</text><rect fill="none" height="6" style="stroke:#C82930;stroke-width:1.0;" width="6" x="15" y="290.1655"/><text fill="#000000" font-family="sans-serif" font-size="14" lengthAdjust="spacing" textLength="213" x="27" y="296.9566">FileMetaData* file_to_compact_</text><rect fill="none" height="6" style="stroke:#C82930;stroke-width:1.0;" width="6" x="15" y="306.6538"/><text fill="#000000" font-family="sans-serif" font-size="14" lengthAdjust="spacing" textLength="174" x="27" y="313.4448">int file_to_compact_level_</text><rect fill="none" height="6" style="stroke:#C82930;stroke-width:1.0;" width="6" x="15" y="323.1421"/><text fill="#000000" font-family="sans-serif" font-size="14" lengthAdjust="spacing" textLength="183" x="27" y="329.9331">double compaction_score_</text><rect fill="none" height="6" style="stroke:#C82930;stroke-width:1.0;" width="6" x="15" y="339.6304"/><text fill="#000000" font-family="sans-serif" font-size="14" lengthAdjust="spacing" textLength="147" x="27" y="346.4214">int compaction_level_</text><line style="stroke:#181818;stroke-width:0.5;" x1="8" x2="630" y1="353.3745" y2="353.3745"/><ellipse cx="18" cy="367.1187" fill="#84BE84" rx="3" ry="3" style="stroke:#038048;stroke-width:1.0;"/><text fill="#000000" font-family="sans-serif" font-size="14" lengthAdjust="spacing" textLength="383" x="27" y="370.9097">void AddIterators(ReadOptions, std::vector&lt;Iterator*&gt;*)</text><ellipse cx="18" cy="383.607" fill="#84BE84" rx="3" ry="3" style="stroke:#038048;stroke-width:1.0;"/><text fill="#000000" font-family="sans-serif" font-size="14" lengthAdjust="spacing" textLength="405" x="27" y="387.398">Status Get(ReadOptions, LookupKey, std::string*, GetStats*)</text><ellipse cx="18" cy="400.0952" fill="#84BE84" rx="3" ry="3" style="stroke:#038048;stroke-width:1.0;"/><text fill="#000000" font-family="sans-serif" font-size="14" lengthAdjust="spacing" textLength="183" x="27" y="403.8863">bool UpdateStats(GetStats)</text><ellipse cx="18" cy="416.5835" fill="#84BE84" rx="3" ry="3" style="stroke:#038048;stroke-width:1.0;"/><text fill="#000000" font-family="sans-serif" font-size="14" lengthAdjust="spacing" textLength="208" x="27" y="420.3745">bool RecordReadSample(Slice)</text><ellipse cx="18" cy="433.0718" fill="#84BE84" rx="3" ry="3" style="stroke:#038048;stroke-width:1.0;"/><text fill="#000000" font-family="sans-serif" font-size="14" lengthAdjust="spacing" textLength="65" x="27" y="436.8628">void Ref()</text><ellipse cx="18" cy="449.5601" fill="#84BE84" rx="3" ry="3" style="stroke:#038048;stroke-width:1.0;"/><text fill="#000000" font-family="sans-serif" font-size="14" lengthAdjust="spacing" textLength="81" x="27" y="453.3511">void Unref()</text><ellipse cx="18" cy="466.0484" fill="#84BE84" rx="3" ry="3" style="stroke:#038048;stroke-width:1.0;"/><text fill="#000000" font-family="sans-serif" font-size="14" lengthAdjust="spacing" textLength="598" x="27" y="469.8394">void GetOverlappingInputs(int, InternalKey*, InternalKey*, std::vector&lt;FileMetaData*&gt;*)</text><ellipse cx="18" cy="482.5366" fill="#84BE84" rx="3" ry="3" style="stroke:#038048;stroke-width:1.0;"/><text fill="#000000" font-family="sans-serif" font-size="14" lengthAdjust="spacing" textLength="255" x="27" y="486.3277">bool OverlapInLevel(int, Slice*, Slice*)</text><ellipse cx="18" cy="499.0249" fill="#84BE84" rx="3" ry="3" style="stroke:#038048;stroke-width:1.0;"/><text fill="#000000" font-family="sans-serif" font-size="14" lengthAdjust="spacing" textLength="305" x="27" y="502.8159">int PickLevelForMemTableOutput(Slice, Slice)</text><ellipse cx="18" cy="515.5132" fill="#84BE84" rx="3" ry="3" style="stroke:#038048;stroke-width:1.0;"/><text fill="#000000" font-family="sans-serif" font-size="14" lengthAdjust="spacing" textLength="113" x="27" y="519.3042">int NumFiles(int)</text><ellipse cx="18" cy="532.0015" fill="#84BE84" rx="3" ry="3" style="stroke:#038048;stroke-width:1.0;"/><text fill="#000000" font-family="sans-serif" font-size="14" lengthAdjust="spacing" textLength="169" x="27" y="535.7925">std::string DebugString()</text><rect fill="#F24D5C" height="6" style="stroke:#C82930;stroke-width:1.0;" width="6" x="15" y="545.4898"/><text fill="#000000" font-family="sans-serif" font-size="14" lengthAdjust="spacing" textLength="366" x="27" y="552.2808">Iterator* NewConcatenatingIterator(ReadOptions, int)</text><rect fill="#F24D5C" height="6" style="stroke:#C82930;stroke-width:1.0;" width="6" x="15" y="561.978"/><text fill="#000000" font-family="sans-serif" font-size="14" lengthAdjust="spacing" textLength="527" x="27" y="568.7691">void ForEachOverlapping(Slice, Slice, void*, bool(*)(void*, int, FileMetaData*))</text></g><!--class VersionSet--><g id="elem_VersionSet"><rect fill="#F1F1F1" height="48" id="VersionSet" rx="2.5" ry="2.5" style="stroke:#181818;stroke-width:0.5;" width="105" x="191.5" y="652.72"/><ellipse cx="206.5" cy="668.72" fill="#ADD1B2" rx="11" ry="11" style="stroke:#181818;stroke-width:1.0;"/><path d="M208.9731,674.8631 Q208.3921,675.1619 207.7529,675.3113 Q207.1138,675.4607 206.4082,675.4607 Q203.9014,675.4607 202.5815,673.8089 Q201.2617,672.157 201.2617,669.0359 Q201.2617,665.9065 202.5815,664.2547 Q203.9014,662.6028 206.4082,662.6028 Q207.1138,662.6028 207.7612,662.7522 Q208.4087,662.9016 208.9731,663.2005 L208.9731,665.9231 Q208.3423,665.3421 207.7488,665.0723 Q207.1553,664.8025 206.5244,664.8025 Q205.1797,664.8025 204.4949,665.8692 Q203.8101,666.9358 203.8101,669.0359 Q203.8101,671.1277 204.4949,672.1944 Q205.1797,673.261 206.5244,673.261 Q207.1553,673.261 207.7488,672.9912 Q208.3423,672.7215 208.9731,672.1404 Z " fill="#000000"/><text fill="#000000" font-family="sans-serif" font-size="14" lengthAdjust="spacing" textLength="73" x="220.5" y="674.011">VersionSet</text><line style="stroke:#181818;stroke-width:0.5;" x1="192.5" x2="295.5" y1="684.72" y2="684.72"/><line style="stroke:#181818;stroke-width:0.5;" x1="192.5" x2="295.5" y1="692.72" y2="692.72"/></g><!--class FileMetaData--><g id="elem_FileMetaData"><rect fill="#F1F1F1" height="48" id="FileMetaData" rx="2.5" ry="2.5" style="stroke:#181818;stroke-width:0.5;" width="120" x="335" y="652.72"/><ellipse cx="350" cy="668.72" fill="#ADD1B2" rx="11" ry="11" style="stroke:#181818;stroke-width:1.0;"/><path d="M352.4731,674.8631 Q351.8921,675.1619 351.2529,675.3113 Q350.6138,675.4607 349.9082,675.4607 Q347.4014,675.4607 346.0815,673.8089 Q344.7617,672.157 344.7617,669.0359 Q344.7617,665.9065 346.0815,664.2547 Q347.4014,662.6028 349.9082,662.6028 Q350.6138,662.6028 351.2612,662.7522 Q351.9087,662.9016 352.4731,663.2005 L352.4731,665.9231 Q351.8423,665.3421 351.2488,665.0723 Q350.6553,664.8025 350.0244,664.8025 Q348.6797,664.8025 347.9949,665.8692 Q347.3101,666.9358 347.3101,669.0359 Q347.3101,671.1277 347.9949,672.1944 Q348.6797,673.261 350.0244,673.261 Q350.6553,673.261 351.2488,672.9912 Q351.8423,672.7215 352.4731,672.1404 Z " fill="#000000"/><text fill="#000000" font-family="sans-serif" font-size="14" lengthAdjust="spacing" textLength="88" x="364" y="674.011">FileMetaData</text><line style="stroke:#181818;stroke-width:0.5;" x1="336" x2="454" y1="684.72" y2="684.72"/><line style="stroke:#181818;stroke-width:0.5;" x1="336" x2="454" y1="692.72" y2="692.72"/></g><!--class Compaction--><g id="elem_Compaction"><rect fill="#F1F1F1" height="48" id="Compaction" rx="2.5" ry="2.5" style="stroke:#181818;stroke-width:0.5;" width="115" x="261.5" y="23.49"/><ellipse cx="276.5" cy="39.49" fill="#ADD1B2" rx="11" ry="11" style="stroke:#181818;stroke-width:1.0;"/><path d="M278.9731,45.6331 Q278.3921,45.9319 277.7529,46.0813 Q277.1138,46.2307 276.4082,46.2307 Q273.9014,46.2307 272.5815,44.5789 Q271.2617,42.927 271.2617,39.8059 Q271.2617,36.6765 272.5815,35.0247 Q273.9014,33.3728 276.4082,33.3728 Q277.1138,33.3728 277.7612,33.5222 Q278.4087,33.6716 278.9731,33.9705 L278.9731,36.6931 Q278.3423,36.1121 277.7488,35.8423 Q277.1553,35.5725 276.5244,35.5725 Q275.1797,35.5725 274.4949,36.6392 Q273.8101,37.7058 273.8101,39.8059 Q273.8101,41.8977 274.4949,42.9644 Q275.1797,44.031 276.5244,44.031 Q277.1553,44.031 277.7488,43.7612 Q278.3423,43.4915 278.9731,42.9104 Z " fill="#000000"/><text fill="#000000" font-family="sans-serif" font-size="14" lengthAdjust="spacing" textLength="83" x="290.5" y="44.781">Compaction</text><line style="stroke:#181818;stroke-width:0.5;" x1="262.5" x2="375.5" y1="55.49" y2="55.49"/><line style="stroke:#181818;stroke-width:0.5;" x1="262.5" x2="375.5" y1="63.49" y2="63.49"/></g><!--link Version to VersionSet--><g id="link_Version_VersionSet"><path codeLine="36" d="M210.3,576.08 C207.12,585.96 204.32,595.87 202,605.72 C200.27,613.07 199.52,615.58 202,622.72 C205.74,633.47 208.822,639.0948 215.992,647.6348 " fill="none" id="Version-to-VersionSet" style="stroke:#181818;stroke-width:1.0;"/><polygon fill="#181818" points="219.85,652.23,217.1264,642.7652,216.635,648.4007,210.9995,647.9092,219.85,652.23" style="stroke:#181818;stroke-width:1.0;"/><text fill="#000000" font-family="sans-serif" font-size="13" lengthAdjust="spacing" textLength="33" x="203" y="619.2884">vset_</text></g><!--link VersionSet to Version--><g id="link_VersionSet_Version"><path codeLine="41" d="M249.7,652.59 C254.2,634.31 259.544,612.6356 267.124,581.8856 " fill="none" id="VersionSet-to-Version" style="stroke:#181818;stroke-width:1.0;stroke-dasharray:7.0,7.0;"/><polygon fill="#181818" points="268.56,576.06,262.5222,583.8411,267.3633,580.9147,270.2897,585.7558,268.56,576.06" style="stroke:#181818;stroke-width:1.0;"/><text fill="#000000" font-family="sans-serif" font-size="13" lengthAdjust="spacing" textLength="37" x="261.2" y="619.2884">friend</text></g><!--link Version to Version--><g id="link_Version_Version"><path codeLine="37" d="M631.29,337.15 C652.87,344.76 666,355.82 666,370.35 C666,384.88 658.5285,393.9446 636.9485,401.5546 " fill="none" id="Version-to-Version" style="stroke:#181818;stroke-width:1.0;"/><polygon fill="#181818" points="631.29,403.55,641.108,404.3292,636.0054,401.8872,638.4474,396.7846,631.29,403.55" style="stroke:#181818;stroke-width:1.0;"/><text fill="#000000" font-family="sans-serif" font-size="13" lengthAdjust="spacing" textLength="76" x="672" y="375.4184">next_/prev_</text></g><!--link Version to FileMetaData--><g id="link_Version_FileMetaData"><path codeLine="38" d="M340.45,576.01 C344.74,592.08 349.87,607.83 356,622.72 C360.35,633.29 363.5682,638.9424 370.3682,647.6924 " fill="none" id="Version-to-FileMetaData" style="stroke:#181818;stroke-width:1.0;"/><polygon fill="#181818" points="374.05,652.43,371.6857,642.8691,370.9819,648.482,365.369,647.7782,374.05,652.43" style="stroke:#181818;stroke-width:1.0;"/><text fill="#000000" font-family="sans-serif" font-size="13" lengthAdjust="spacing" textLength="44" x="357" y="619.2884">files_ *</text></g><!--link Version to FileMetaData--><g id="link_Version_FileMetaData"><path codeLine="39" d="M399.63,575.97 C402.09,585.94 404.24,595.89 406,605.72 C408.78,621.22 407.4993,632.9027 404.0593,646.5227 " fill="none" id="Version-to-FileMetaData-1" style="stroke:#181818;stroke-width:1.0;"/><polygon fill="#181818" points="402.59,652.34,408.6721,644.5935,403.8144,647.4922,400.9157,642.6345,402.59,652.34" style="stroke:#181818;stroke-width:1.0;"/><text fill="#000000" font-family="sans-serif" font-size="13" lengthAdjust="spacing" textLength="108" x="408.14" y="619.2884">file_to_compact_</text></g><!--link Compaction to Version--><g id="link_Compaction_Version"><path codeLine="40" d="M319,71.82 C319,93.24 319,121.26 319,158.77 " fill="none" id="Compaction-to-Version" style="stroke:#181818;stroke-width:1.0;stroke-dasharray:7.0,7.0;"/><polygon fill="#181818" points="319,164.77,323,155.77,319,159.77,315,155.77,319,164.77" style="stroke:#181818;stroke-width:1.0;"/><text fill="#000000" font-family="sans-serif" font-size="13" lengthAdjust="spacing" textLength="37" x="320" y="131.5484">friend</text></g><!--SRC=[XLF1RjD04BtxA-Q6uoRbRg58gAKeecrGJBaWP6tMas35sRLsrmQ4E710eXS44WV4Ho2XNa3zdORo6OpNwsOT5U53d9qti_DcthCsgk86dgBIkHHn_11DOfZHy2O0UlRWA2_m10qxP8P5e15NwO923is5sSRI0ciiWhT1S0SstxzT_Jg__d5vzVFZxm-VDf-_1hnWMdUTxFrxKCiyW_jPDZ6ec95AXpDasRGqbAA7e4qMnpLoGkvrAT4u6jZQXcUbWHZtYuwbN5Nb8tpjwhLHkLX6G-XcS_LpAGiuApDcq8R33lVW6NAfikRwXAtB0iEao3aEjjndk0YzuvbG_G3TEQrH5QmiYSH4b1KregqDOI9e8C4A8XhjdlovUmACVUxkueauRlRUtchvHTsxJMv4UfppbKqxake4rq_OlC1fPOXEEvAhs1QSLkkcioNRHhrbmY7EgsLY_zEq18ywOHCq4TGQJUf78n3uQZTKAgpRKDEG5gVRqx-dXyPcEdt6fLZaopXU4KixbNvkA_jcjPuqCkLoNJ9kjgrs0UlR5ivaHPi1Xn3DL9C3S5lh8QxCGZVkX5DyUI059rS9PXhD7T8tgTlgg7K9YVA0yHUUKtgg36qMgTh87aQ3q1sjuhsP1mF_yzkyl_ZpxWlzNbzS1js7DngDFQqWTcBT0XDcLRlR2kLd-4qfhPK5el_bzDGukDaaxE_xJHSgHv457ibRyRy0]--></g></svg>